<?xml version="1.0" encoding="UTF-8"?>
<svg width="48px" height="48px" viewBox="0 0 48 48" version="1.1" xmlns="http://www.w3.org/2000/svg" xmlns:xlink="http://www.w3.org/1999/xlink">
    <title>icon/素材库管理</title>
    <defs>
        <path d="M10.2555408,-4.14336123e-16 L33.7444592,4.14336123e-16 C37.3105342,-2.4074122e-16 38.6036791,0.371302445 39.9073828,1.06853082 C41.2110865,1.76575919 42.2342408,2.78891348 42.9314692,4.09261719 C43.6286976,5.39632089 44,6.68946584 44,10.2555408 L44,33.7444592 C44,37.3105342 43.6286976,38.6036791 42.9314692,39.9073828 C42.2342408,41.2110865 41.2110865,42.2342408 39.9073828,42.9314692 C38.6036791,43.6286976 37.3105342,44 33.7444592,44 L10.2555408,44 C6.68946584,44 5.39632089,43.6286976 4.09261719,42.9314692 C2.78891348,42.2342408 1.76575919,41.2110865 1.06853082,39.9073828 C0.371302445,38.6036791 1.60494146e-16,37.3105342 -2.76224082e-16,33.7444592 L2.76224082e-16,10.2555408 C-1.60494146e-16,6.68946584 0.371302445,5.39632089 1.06853082,4.09261719 C1.76575919,2.78891348 2.78891348,1.76575919 4.09261719,1.06853082 C5.39632089,0.371302445 6.68946584,2.4074122e-16 10.2555408,-4.14336123e-16 Z" id="path-1"></path>
        <path d="M10.2555408,-4.14336123e-16 L33.7444592,4.14336123e-16 C37.3105342,-2.4074122e-16 38.6036791,0.371302445 39.9073828,1.06853082 C41.2110865,1.76575919 42.2342408,2.78891348 42.9314692,4.09261719 C43.6286976,5.39632089 44,6.68946584 44,10.2555408 L44,33.7444592 C44,37.3105342 43.6286976,38.6036791 42.9314692,39.9073828 C42.2342408,41.2110865 41.2110865,42.2342408 39.9073828,42.9314692 C38.6036791,43.6286976 37.3105342,44 33.7444592,44 L10.2555408,44 C6.68946584,44 5.39632089,43.6286976 4.09261719,42.9314692 C2.78891348,42.2342408 1.76575919,41.2110865 1.06853082,39.9073828 C0.371302445,38.6036791 1.60494146e-16,37.3105342 -2.76224082e-16,33.7444592 L2.76224082e-16,10.2555408 C-1.60494146e-16,6.68946584 0.371302445,5.39632089 1.06853082,4.09261719 C1.76575919,2.78891348 2.78891348,1.76575919 4.09261719,1.06853082 C5.39632089,0.371302445 6.68946584,2.4074122e-16 10.2555408,-4.14336123e-16 Z" id="path-3"></path>
        <circle id="path-5" cx="36" cy="8" r="3"></circle>
        <filter x="-108.3%" y="-91.7%" width="316.7%" height="316.7%" filterUnits="objectBoundingBox" id="filter-6">
            <feOffset dx="0" dy="1" in="SourceAlpha" result="shadowOffsetOuter1"></feOffset>
            <feGaussianBlur stdDeviation="2" in="shadowOffsetOuter1" result="shadowBlurOuter1"></feGaussianBlur>
            <feColorMatrix values="0 0 0 0 0.0784313725   0 0 0 0 0.223529412   0 0 0 0 0.478431373  0 0 0 0.2 0" type="matrix" in="shadowBlurOuter1"></feColorMatrix>
        </filter>
        <path d="M10.2555408,-4.14336123e-16 L33.7444592,4.14336123e-16 C37.3105342,-2.4074122e-16 38.6036791,0.371302445 39.9073828,1.06853082 C41.2110865,1.76575919 42.2342408,2.78891348 42.9314692,4.09261719 C43.6286976,5.39632089 44,6.68946584 44,10.2555408 L44,33.7444592 C44,37.3105342 43.6286976,38.6036791 42.9314692,39.9073828 C42.2342408,41.2110865 41.2110865,42.2342408 39.9073828,42.9314692 C38.6036791,43.6286976 37.3105342,44 33.7444592,44 L10.2555408,44 C6.68946584,44 5.39632089,43.6286976 4.09261719,42.9314692 C2.78891348,42.2342408 1.76575919,41.2110865 1.06853082,39.9073828 C0.371302445,38.6036791 1.60494146e-16,37.3105342 -2.76224082e-16,33.7444592 L2.76224082e-16,10.2555408 C-1.60494146e-16,6.68946584 0.371302445,5.39632089 1.06853082,4.09261719 C1.76575919,2.78891348 2.78891348,1.76575919 4.09261719,1.06853082 C5.39632089,0.371302445 6.68946584,2.4074122e-16 10.2555408,-4.14336123e-16 Z" id="path-7"></path>
        <path d="M-3,27.5357143 L10.8745608,16.1513668 C11.6705661,15.4982291 12.8323849,15.5561917 13.5594297,16.2853138 L26.2622492,29.024427 C26.9941739,29.7584429 28.1656138,29.8115941 28.9610027,29.1468764 L34.4834418,24.5316951 C35.2788306,23.8669773 36.4502706,23.9201285 37.1821953,24.6541444 L47,34.5 L47,34.5 L47,51.2142857 L-3,51.2142857 L-3,27.5357143 Z" id="path-9"></path>
        <filter x="-13.0%" y="-13.3%" width="126.0%" height="134.0%" filterUnits="objectBoundingBox" id="filter-10">
            <feOffset dx="0" dy="1" in="SourceAlpha" result="shadowOffsetOuter1"></feOffset>
            <feGaussianBlur stdDeviation="2" in="shadowOffsetOuter1" result="shadowBlurOuter1"></feGaussianBlur>
            <feColorMatrix values="0 0 0 0 0.0784313725   0 0 0 0 0.223529412   0 0 0 0 0.478431373  0 0 0 0.2 0" type="matrix" in="shadowBlurOuter1"></feColorMatrix>
        </filter>
        <path d="M-3,30.5357143 L10.8745608,19.1513668 C11.6705661,18.4982291 12.8323849,18.5561917 13.5594297,19.2853138 L26.2622492,32.024427 C26.9941739,32.7584429 28.1656138,32.8115941 28.9610027,32.1468764 L34.4834418,27.5316951 C35.2788306,26.8669773 36.4502706,26.9201285 37.1821953,27.6541444 L47,37.5 L47,37.5 L47,54.2142857 L-3,54.2142857 L-3,30.5357143 Z" id="path-11"></path>
        <filter x="-13.0%" y="-13.3%" width="126.0%" height="134.0%" filterUnits="objectBoundingBox" id="filter-12">
            <feOffset dx="0" dy="1" in="SourceAlpha" result="shadowOffsetOuter1"></feOffset>
            <feGaussianBlur stdDeviation="2" in="shadowOffsetOuter1" result="shadowBlurOuter1"></feGaussianBlur>
            <feColorMatrix values="0 0 0 0 0.125490196   0 0 0 0 0.403921569   0 0 0 0 0.701960784  0 0 0 0.2 0" type="matrix" in="shadowBlurOuter1"></feColorMatrix>
        </filter>
    </defs>
    <g id="icon/素材库管理" stroke="none" stroke-width="1" fill="none" fill-rule="evenodd">
        <g id="编组" transform="translate(2.000000, 2.000000)">
            <mask id="mask-2" fill="white">
                <use xlink:href="#path-1"></use>
            </mask>
            <use id="Mask" fill="#2975F9" fill-rule="nonzero" xlink:href="#path-1"></use>
            <mask id="mask-4" fill="white">
                <use xlink:href="#path-3"></use>
            </mask>
            <use id="Mask备份" fill="#2975F9" fill-rule="nonzero" xlink:href="#path-3"></use>
            <g id="Oval" fill-rule="nonzero" mask="url(#mask-4)">
                <use fill="black" fill-opacity="1" filter="url(#filter-6)" xlink:href="#path-5"></use>
                <use fill="#FFFFFF" xlink:href="#path-5"></use>
            </g>
            <mask id="mask-8" fill="white">
                <use xlink:href="#path-7"></use>
            </mask>
            <use id="Mask备份-2" fill="#2975F9" fill-rule="nonzero" xlink:href="#path-7"></use>
            <g id="Path-2" fill-rule="nonzero" mask="url(#mask-8)">
                <use fill="black" fill-opacity="1" filter="url(#filter-10)" xlink:href="#path-9"></use>
                <use fill="#FFFFFF" xlink:href="#path-9"></use>
            </g>
            <g id="Path-2-Copy" fill-rule="nonzero" mask="url(#mask-8)">
                <use fill="black" fill-opacity="1" filter="url(#filter-12)" xlink:href="#path-11"></use>
                <use fill="#2D91FF" xlink:href="#path-11"></use>
            </g>
        </g>
    </g>
</svg>