<?xml version="1.0" encoding="UTF-8"?>
<svg width="48px" height="48px" viewBox="0 0 48 48" version="1.1" xmlns="http://www.w3.org/2000/svg" xmlns:xlink="http://www.w3.org/1999/xlink">
    <title>icon/备播带查询</title>
    <g id="icon/备播带查询" stroke="none" stroke-width="1" fill="none" fill-rule="evenodd">
        <path d="M11.9473476,9.46255983 L30.8744996,15.0555873 C31.4623129,15.2292878 31.6625012,15.3224266 31.8699546,15.4594526 C32.077408,15.5964787 32.2441418,15.7632124 32.3811678,15.9706658 C32.5181939,16.1781192 32.6113326,16.3783075 32.7850331,16.9661208 L38.3780606,35.8932729 C38.6910832,36.9525607 38.0861157,38.065038 37.0268279,38.3780606 C36.6568833,38.4873803 36.2632175,38.4873803 35.8932729,38.3780606 L19.9156063,33.6566145 C18.1521664,33.135513 17.5516015,32.8560967 16.9292413,32.4450186 C16.3068811,32.0339404 15.80668,31.5337393 15.3956018,30.9113791 C14.9845237,30.2890189 14.7051075,29.688454 14.1840059,27.9250141 L9.46255983,11.9473476 C9.14953726,10.8880598 9.75450476,9.7755824 10.8137926,9.46255983 C11.1837372,9.35324014 11.577403,9.35324014 11.9473476,9.46255983 Z" id="矩形-copy" fill="#328FF6" transform="translate(23.920310, 23.920310) rotate(-45.000000) translate(-23.920310, -23.920310) "></path>
        <path d="M11.9473476,17.4625598 L30.8744996,23.0555873 C31.4623129,23.2292878 31.6625012,23.3224266 31.8699546,23.4594526 C32.077408,23.5964787 32.2441418,23.7632124 32.3811678,23.9706658 C32.5181939,24.1781192 32.6113326,24.3783075 32.7850331,24.9661208 L38.3780606,43.8932729 C38.6910832,44.9525607 38.0861157,46.065038 37.0268279,46.3780606 C36.6568833,46.4873803 36.2632175,46.4873803 35.8932729,46.3780606 L19.9156063,41.6566145 C18.1521664,41.135513 17.5516015,40.8560967 16.9292413,40.4450186 C16.3068811,40.0339404 15.80668,39.5337393 15.3956018,38.9113791 C14.9845237,38.2890189 14.7051075,37.688454 14.1840059,35.9250141 L9.46255983,19.9473476 C9.14953726,18.8880598 9.75450476,17.7755824 10.8137926,17.4625598 C11.1837372,17.3532401 11.577403,17.3532401 11.9473476,17.4625598 Z" id="矩形-copy-2" fill="#328FF6" opacity="0.600000024" transform="translate(23.920310, 31.920310) rotate(-45.000000) translate(-23.920310, -31.920310) "></path>
        <path d="M11.9473476,1.46255983 L27.9250141,6.18400593 C29.688454,6.70510745 30.2890189,6.98452369 30.9113791,7.39560184 C31.5337393,7.80667998 32.0339404,8.30688115 32.4450186,8.92924133 C32.8560967,9.55160151 33.135513,10.1521664 33.6566145,11.9156063 L38.3780606,27.8932729 C38.6910832,28.9525607 38.0861157,30.065038 37.0268279,30.3780606 C36.6568833,30.4873803 36.2632175,30.4873803 35.8932729,30.3780606 L19.9156063,25.6566145 C18.1521664,25.135513 17.5516015,24.8560967 16.9292413,24.4450186 C16.3068811,24.0339404 15.80668,23.5337393 15.3956018,22.9113791 C14.9845237,22.2890189 14.7051075,21.688454 14.1840059,19.9250141 L9.46255983,3.94734757 C9.14953726,2.88805976 9.75450476,1.7755824 10.8137926,1.46255983 C11.1837372,1.35324014 11.577403,1.35324014 11.9473476,1.46255983 Z" id="矩形" fill="#2975F9" transform="translate(23.920310, 15.920310) rotate(-45.000000) translate(-23.920310, -15.920310) "></path>
        <ellipse id="椭圆形" fill="#FFFFFF" cx="24" cy="8" rx="1.5" ry="1"></ellipse>
        <ellipse id="椭圆形-copy-2" fill="#FFFFFF" cx="24" cy="24" rx="1.5" ry="1"></ellipse>
        <ellipse id="椭圆形-copy" fill="#FFFFFF" cx="39.5" cy="16" rx="1.5" ry="1"></ellipse>
        <ellipse id="椭圆形-copy-3" fill="#FFFFFF" cx="8.5" cy="16" rx="1.5" ry="1"></ellipse>
    </g>
</svg>