<?xml version="1.0" encoding="UTF-8"?>
<svg width="48px" height="48px" viewBox="0 0 48 48" version="1.1" xmlns="http://www.w3.org/2000/svg" xmlns:xlink="http://www.w3.org/1999/xlink">
    <title>icon/各频道领用空白带结算统计</title>
    <defs>
        <path d="M18.5,20 C19.3284271,20 20,20.6715729 20,21.5 L20,32 L17,32 L17,21.5 C17,20.6715729 17.6715729,20 18.5,20 Z M29.5,20 C30.3284271,20 31,20.6715729 31,21.5 L31,32 L28,32 L28,21.5 C28,20.6715729 28.6715729,20 29.5,20 Z" id="path-1"></path>
        <filter x="-46.4%" y="-45.8%" width="192.9%" height="208.3%" filterUnits="objectBoundingBox" id="filter-2">
            <feOffset dx="0" dy="1" in="SourceAlpha" result="shadowOffsetOuter1"></feOffset>
            <feGaussianBlur stdDeviation="2" in="shadowOffsetOuter1" result="shadowBlurOuter1"></feGaussianBlur>
            <feColorMatrix values="0 0 0 0 0   0 0 0 0 0.239215686   0 0 0 0 0.149019608  0 0 0 0.2 0" type="matrix" in="shadowBlurOuter1"></feColorMatrix>
        </filter>
    </defs>
    <g id="icon/各频道领用空白带结算统计" stroke="none" stroke-width="1" fill="none" fill-rule="evenodd">
        <path d="M2.5638852,7 L7,7 L7,7 L9.93578949,13 L38.0416122,13 L41,7 L45.4361148,7 C46.3276335,7 46.6509198,7.09282561 46.9768457,7.2671327 C47.3027716,7.4414398 47.5585602,7.69722837 47.7328673,8.0231543 C47.9071744,8.34908022 48,8.67236646 48,9.5638852 L48,38.4361148 C48,39.3276335 47.9071744,39.6509198 47.7328673,39.9768457 C47.5585602,40.3027716 47.3027716,40.5585602 46.9768457,40.7328673 C46.6509198,40.9071744 46.3276335,41 45.4361148,41 L2.5638852,41 C1.67236646,41 1.34908022,40.9071744 1.0231543,40.7328673 C0.697228371,40.5585602 0.441439796,40.3027716 0.267132704,39.9768457 C0.0928256111,39.6509198 -4.61451543e-14,39.3276335 -4.62543338e-14,38.4361148 L-4.61162218e-14,9.5638852 C-4.62254014e-14,8.67236646 0.0928256111,8.34908022 0.267132704,8.0231543 C0.441439796,7.69722837 0.697228371,7.4414398 1.0231543,7.2671327 C1.34908022,7.09282561 1.67236646,7 2.5638852,7 Z" id="矩形" fill="#37B370" fill-rule="nonzero"></path>
        <path d="M12.5,7 L35.5,7 C36.3284271,7 37,7.67157288 37,8.5 C37,9.32842712 36.3284271,10 35.5,10 L12.5,10 C11.6715729,10 11,9.32842712 11,8.5 C11,7.67157288 11.6715729,7 12.5,7 Z" id="矩形" fill="#006F45" fill-rule="nonzero"></path>
        <path d="M17.5,33 L30.5,33 C30.7761424,33 31,33.2238576 31,33.5 C31,33.7761424 30.7761424,34 30.5,34 L17.5,34 C17.2238576,34 17,33.7761424 17,33.5 C17,33.2238576 17.2238576,33 17.5,33 Z" id="矩形" fill="#FFFFFF" fill-rule="nonzero" opacity="0.400000006"></path>
        <g id="合并形状" fill-rule="nonzero">
            <use fill="black" fill-opacity="1" filter="url(#filter-2)" xlink:href="#path-1"></use>
            <use fill="#FFFFFF" xlink:href="#path-1"></use>
        </g>
        <path d="M24,24 C24.8284271,24 25.5,24.6715729 25.5,25.5 L25.5,32 L25.5,32 L22.5,32 L22.5,25.5 C22.5,24.6715729 23.1715729,24 24,24 Z" id="矩形-copy" fill="#FFFFFF" fill-rule="nonzero"></path>
    </g>
</svg>