<?xml version="1.0" encoding="UTF-8"?>
<svg width="48px" height="48px" viewBox="0 0 48 48" version="1.1" xmlns="http://www.w3.org/2000/svg" xmlns:xlink="http://www.w3.org/1999/xlink">
    <title>icon/备播带借出申请</title>
    <defs>
        <path d="M11.5,12 L36.5,12 C37.3284271,12 38,12.6715729 38,13.5 C38,14.3284271 37.3284271,15 36.5,15 L11.5,15 C10.6715729,15 10,14.3284271 10,13.5 C10,12.6715729 10.6715729,12 11.5,12 Z" id="path-1"></path>
        <filter x="-23.2%" y="-183.3%" width="146.4%" height="533.3%" filterUnits="objectBoundingBox" id="filter-2">
            <feOffset dx="0" dy="1" in="SourceAlpha" result="shadowOffsetOuter1"></feOffset>
            <feGaussianBlur stdDeviation="2" in="shadowOffsetOuter1" result="shadowBlurOuter1"></feGaussianBlur>
            <feColorMatrix values="0 0 0 0 0.0784313725   0 0 0 0 0.223529412   0 0 0 0 0.478431373  0 0 0 0.2 0" type="matrix" in="shadowBlurOuter1"></feColorMatrix>
        </filter>
        <path d="M11.5,21 L23.5,21 C24.3284271,21 25,21.6715729 25,22.5 C25,23.3284271 24.3284271,24 23.5,24 L11.5,24 C10.6715729,24 10,23.3284271 10,22.5 C10,21.6715729 10.6715729,21 11.5,21 Z" id="path-3"></path>
        <filter x="-43.3%" y="-183.3%" width="186.7%" height="533.3%" filterUnits="objectBoundingBox" id="filter-4">
            <feOffset dx="0" dy="1" in="SourceAlpha" result="shadowOffsetOuter1"></feOffset>
            <feGaussianBlur stdDeviation="2" in="shadowOffsetOuter1" result="shadowBlurOuter1"></feGaussianBlur>
            <feColorMatrix values="0 0 0 0 0.0784313725   0 0 0 0 0.223529412   0 0 0 0 0.478431373  0 0 0 0.2 0" type="matrix" in="shadowBlurOuter1"></feColorMatrix>
        </filter>
    </defs>
    <g id="icon/备播带借出申请" stroke="none" stroke-width="1" fill="none" fill-rule="evenodd">
        <path d="M5.5638852,4 L42.4361148,4 C43.3276335,4 43.6509198,4.09282561 43.9768457,4.2671327 C44.3027716,4.4414398 44.5585602,4.69722837 44.7328673,5.0231543 C44.9071744,5.34908022 45,5.67236646 45,6.5638852 L45,30.1729569 C45,31.0644756 44.9071744,31.3877619 44.7328673,31.7136878 C44.5585602,32.0396137 44.3027716,32.2954023 43.9768457,32.4697094 C43.6509198,32.6440165 43.3276335,32.7368421 42.4361148,32.7368421 L19.6101784,32.7368421 C19.1283956,32.7368421 18.9642844,32.7514795 18.7815416,32.7887705 C18.5987987,32.8260614 18.4367534,32.8860059 18.273736,32.97662 C18.1107187,33.0672341 17.9765902,33.1629227 17.6107935,33.4764627 L6.30158275,43.1700719 C5.46293106,43.8889162 4.2003311,43.7917932 3.4814868,42.9531415 C3.17078432,42.5906553 3,42.1289813 3,41.6515587 L3,32.7368421 L3,6.5638852 C3,5.67236646 3.09282561,5.34908022 3.2671327,5.0231543 C3.4414398,4.69722837 3.69722837,4.4414398 4.0231543,4.2671327 C4.34908022,4.09282561 4.67236646,4 5.5638852,4 Z" id="矩形" fill="#2975F9"></path>
        <path d="M31.4193387,48.6834222 C32.2477659,48.6834222 32.9193387,49.354995 32.9193387,50.1834222 C32.9193387,50.3871223 32.8778494,50.5886881 32.7974005,50.7758289 L31.3597383,54.1201312 C31.0325611,54.8812137 30.1503523,55.2329635 29.3892698,54.9057862 C29.0386719,54.7550698 28.7587012,54.4763897 28.6063665,54.1264919 L27.1503608,50.7821896 C26.8196707,50.0226269 27.1673406,49.1388023 27.9269034,48.8081122 C28.1158109,48.7258677 28.3196363,48.6834222 28.5256708,48.6834222 L31.4193387,48.6834222 Z M30.2516539,24.9727374 C30.9218936,24.9727374 31.2820596,25.065563 31.6079856,25.2398701 C31.9339115,25.4141772 32.1897001,25.6699658 32.3640072,25.9958917 C32.5383143,26.3218176 32.6311399,26.6819837 32.6311399,27.3522234 L32.6311399,47.6056638 L27.3023753,47.6056638 L27.3023753,27.3522234 C27.3023753,26.6819837 27.3952009,26.3218176 27.569508,25.9958917 C27.7438151,25.6699658 27.9996037,25.4141772 28.3255296,25.2398701 C28.6514555,25.065563 29.0116216,24.9727374 29.6818613,24.9727374 L30.2516539,24.9727374 Z" id="合并形状" fill="#62A6F5" fill-rule="nonzero" transform="translate(29.972315, 40.000423) rotate(-270.000000) translate(-29.972315, -40.000423) "></path>
        <g id="矩形">
            <use fill="black" fill-opacity="1" filter="url(#filter-2)" xlink:href="#path-1"></use>
            <use fill="#FFFFFF" fill-rule="evenodd" xlink:href="#path-1"></use>
        </g>
        <g id="矩形-copy-3">
            <use fill="black" fill-opacity="1" filter="url(#filter-4)" xlink:href="#path-3"></use>
            <use fill="#FFFFFF" fill-rule="evenodd" xlink:href="#path-3"></use>
        </g>
    </g>
</svg>