<?xml version="1.0" encoding="UTF-8"?>
<svg width="48px" height="48px" viewBox="0 0 48 48" version="1.1" xmlns="http://www.w3.org/2000/svg" xmlns:xlink="http://www.w3.org/1999/xlink">
    <title>icon/分流入库</title>
    <g id="icon/分流入库" stroke="none" stroke-width="1" fill="none" fill-rule="evenodd">
        <path d="M2,26 L46,26 L46,43.4361148 C46,44.3276335 45.9071744,44.6509198 45.7328673,44.9768457 C45.5585602,45.3027716 45.3027716,45.5585602 44.9768457,45.7328673 C44.6509198,45.9071744 44.3276335,46 43.4361148,46 L4.5638852,46 C3.67236646,46 3.34908022,45.9071744 3.0231543,45.7328673 C2.69722837,45.5585602 2.4414398,45.3027716 2.2671327,44.9768457 C2.09282561,44.6509198 2,44.3276335 2,43.4361148 L2,26 L2,26 Z" id="矩形" fill="#FD4541" fill-rule="nonzero"></path>
        <path d="M12.2819426,35 L15.7180574,35 C16.1638168,35 16.3254599,35.0464128 16.4884229,35.1335664 C16.6513858,35.2207199 16.7792801,35.3486142 16.8664336,35.5115771 C16.9535872,35.6745401 17,35.8361832 17,36.2819426 L17,39.7180574 C17,40.1638168 16.9535872,40.3254599 16.8664336,40.4884229 C16.7792801,40.6513858 16.6513858,40.7792801 16.4884229,40.8664336 C16.3254599,40.9535872 16.1638168,41 15.7180574,41 L12.2819426,41 C11.8361832,41 11.6745401,40.9535872 11.5115771,40.8664336 C11.3486142,40.7792801 11.2207199,40.6513858 11.1335664,40.4884229 C11.0464128,40.3254599 11,40.1638168 11,39.7180574 L11,36.2819426 C11,35.8361832 11.0464128,35.6745401 11.1335664,35.5115771 C11.2207199,35.3486142 11.3486142,35.2207199 11.5115771,35.1335664 C11.6745401,35.0464128 11.8361832,35 12.2819426,35 Z" id="矩形" fill="#FFFFFF" fill-rule="nonzero"></path>
        <path d="M32.2819426,35 L35.7180574,35 C36.1638168,35 36.3254599,35.0464128 36.4884229,35.1335664 C36.6513858,35.2207199 36.7792801,35.3486142 36.8664336,35.5115771 C36.9535872,35.6745401 37,35.8361832 37,36.2819426 L37,39.7180574 C37,40.1638168 36.9535872,40.3254599 36.8664336,40.4884229 C36.7792801,40.6513858 36.6513858,40.7792801 36.4884229,40.8664336 C36.3254599,40.9535872 36.1638168,41 35.7180574,41 L32.2819426,41 C31.8361832,41 31.6745401,40.9535872 31.5115771,40.8664336 C31.3486142,40.7792801 31.2207199,40.6513858 31.1335664,40.4884229 C31.0464128,40.3254599 31,40.1638168 31,39.7180574 L31,36.2819426 C31,35.8361832 31.0464128,35.6745401 31.1335664,35.5115771 C31.2207199,35.3486142 31.3486142,35.2207199 31.5115771,35.1335664 C31.6745401,35.0464128 31.8361832,35 32.2819426,35 Z" id="矩形-copy" fill="#FFFFFF" fill-rule="nonzero"></path>
        <path d="M21.5,36 L28.5,36 C28.7761424,36 29,36.2238576 29,36.5 C29,36.7761424 28.7761424,37 28.5,37 L21.5,37 C21.2238576,37 21,36.7761424 21,36.5 C21,36.2238576 21.2238576,36 21.5,36 Z" id="矩形" fill="#FFFFFF" fill-rule="nonzero" opacity="0.400000006"></path>
        <path d="M19.5,39 L26.5,39 C26.7761424,39 27,39.2238576 27,39.5 C27,39.7761424 26.7761424,40 26.5,40 L19.5,40 C19.2238576,40 19,39.7761424 19,39.5 C19,39.2238576 19.2238576,39 19.5,39 Z" id="矩形-copy-2" fill="#FFFFFF" fill-rule="nonzero" opacity="0.400000006"></path>
        <path d="M2,26 L11.1226079,15.9651313 C11.4845149,15.5670336 11.6266231,15.4426452 11.8039264,15.3237352 C11.9812296,15.2048252 12.1641847,15.1238914 12.371438,15.0726851 C12.5556633,15.0271684 12.7243854,15.0051401 13.1374688,15.0008068 L34.6956629,15 C35.2336763,15 35.4213086,15.0214788 35.628562,15.0726851 C35.8358153,15.1238914 36.0187704,15.2048252 36.1960736,15.3237352 C36.3733769,15.4426452 36.5154851,15.5670336 36.8773921,15.9651313 L46,26 L33,26 L31,30 L17,30 L15,26 L2,26 Z" id="合并形状" fill="#D8200E" fill-rule="nonzero"></path>
        <path d="M24,2 C24.8284271,2 25.5,2.67157288 25.5,3.5 L25.5,17 L28.5,17 L24.8,21.9333333 C24.4686292,22.3751611 23.8418278,22.4647042 23.4,22.1333333 C23.3241943,22.0764791 23.2568542,22.009139 23.2,21.9333333 L19.5,17 L22.5,17 L22.5,3.5 C22.5,2.67157288 23.1715729,2 24,2 Z" id="合并形状" fill="#FD4541" fill-rule="nonzero"></path>
    </g>
</svg>