<?xml version="1.0" encoding="UTF-8"?>
<svg width="48px" height="48px" viewBox="0 0 48 48" version="1.1" xmlns="http://www.w3.org/2000/svg" xmlns:xlink="http://www.w3.org/1999/xlink">
    <title>icon/备播带借还</title>
    <g id="icon/备播带借还" stroke="none" stroke-width="1" fill="none" fill-rule="evenodd">
        <g id="分组" fill-rule="nonzero">
            <rect id="矩形" fill="#37B370" x="2" y="2" width="44" height="44" rx="2"></rect>
            <path d="M19.173097,24.5214466 L25.0375883,30.3839382 C25.4534501,30.5736372 25.767508,30.9477336 25.8752429,31.4017082 C25.9425385,31.5768952 25.9763979,31.7614815 25.9763979,31.9460678 C25.9763979,32.3299513 25.8299513,32.7138348 25.5370581,33.006728 L19.173097,39.370689 C18.5873106,39.9564755 17.6375631,39.9564755 17.0517767,39.370689 C16.4659903,38.7849026 16.4659903,37.8351551 17.0517767,37.2493687 L21.0507377,33.2491068 L9.41573773,33.2493687 C8.5873106,33.2493687 7.91573773,32.5777958 7.91573773,31.7493687 C7.91573773,30.9209415 8.5873106,30.2493687 9.41573773,30.2493687 L20.6587377,30.2491068 L17.0517767,26.642767 C16.4659903,26.0569805 16.4659903,25.107233 17.0517767,24.5214466 C17.6375631,23.9356602 18.5873106,23.9356602 19.173097,24.5214466 Z" id="合并形状" fill="#FFFFFF" transform="translate(16.946068, 31.946068) rotate(-45.000000) translate(-16.946068, -31.946068) "></path>
            <path d="M34.173097,9.52144661 L40.0375883,15.3839382 C40.4534501,15.5736372 40.767508,15.9477336 40.8752429,16.4017082 C40.9425385,16.5768952 40.9763979,16.7614815 40.9763979,16.9460678 C40.9763979,17.3299513 40.8299513,17.7138348 40.5370581,18.006728 L34.173097,24.370689 C33.5873106,24.9564755 32.6375631,24.9564755 32.0517767,24.370689 C31.4659903,23.7849026 31.4659903,22.8351551 32.0517767,22.2493687 L36.0507377,18.2491068 L24.4157377,18.2493687 C23.5873106,18.2493687 22.9157377,17.5777958 22.9157377,16.7493687 C22.9157377,15.9209415 23.5873106,15.2493687 24.4157377,15.2493687 L35.6587377,15.2491068 L32.0517767,11.642767 C31.4659903,11.0569805 31.4659903,10.107233 32.0517767,9.52144661 C32.6375631,8.93566017 33.5873106,8.93566017 34.173097,9.52144661 Z" id="合并形状-copy" fill="#006F45" transform="translate(31.946068, 16.946068) scale(-1, -1) rotate(-45.000000) translate(-31.946068, -16.946068) "></path>
        </g>
    </g>
</svg>