<?xml version="1.0" encoding="UTF-8"?>
<svg width="48px" height="48px" viewBox="0 0 48 48" version="1.1" xmlns="http://www.w3.org/2000/svg" xmlns:xlink="http://www.w3.org/1999/xlink">
    <title>icon/审批管理</title>
    <defs>
        <path d="M17.5,16 C18.3284271,16 19,16.6715729 19,17.5 L19,22.999 L34.5,23 C35.3284271,23 36,23.6715729 36,24.5 C36,25.3284271 35.3284271,26 34.5,26 L17.5212849,25.9998521 C17.5142017,25.9999506 17.5071066,26 17.5,26 C16.6715729,26 16,25.3284271 16,24.5 L16,17.5 C16,16.6715729 16.6715729,16 17.5,16 Z" id="path-1"></path>
        <filter x="-32.5%" y="-55.0%" width="165.0%" height="230.0%" filterUnits="objectBoundingBox" id="filter-2">
            <feOffset dx="0" dy="1" in="SourceAlpha" result="shadowOffsetOuter1"></feOffset>
            <feGaussianBlur stdDeviation="2" in="shadowOffsetOuter1" result="shadowBlurOuter1"></feGaussianBlur>
            <feColorMatrix values="0 0 0 0 0.0784313725   0 0 0 0 0.223529412   0 0 0 0 0.478431373  0 0 0 0.2 0" type="matrix" in="shadowBlurOuter1"></feColorMatrix>
        </filter>
        <path d="M14.5092038,2 L34.4907962,2 C35.3166973,2 35.6509198,2.09282561 35.9768457,2.2671327 C36.3027716,2.4414398 36.5585602,2.69722837 36.7328673,3.0231543 C36.9071744,3.34908022 37,3.68330273 37,4.50920383 L37,5.49079617 C37,6.31669727 36.9071744,6.65091978 36.7328673,6.9768457 C36.5585602,7.30277163 36.3027716,7.5585602 35.9768457,7.7328673 C35.6509198,7.90717439 35.3166973,8 34.4907962,8 L14.5092038,8 C13.6833027,8 13.3490802,7.90717439 13.0231543,7.7328673 C12.6972284,7.5585602 12.4414398,7.30277163 12.2671327,6.9768457 C12.0928256,6.65091978 12,6.31669727 12,5.49079617 L12,4.50920383 C12,3.68330273 12.0928256,3.34908022 12.2671327,3.0231543 C12.4414398,2.69722837 12.6972284,2.4414398 13.0231543,2.2671327 C13.3490802,2.09282561 13.6833027,2 14.5092038,2 Z" id="path-3"></path>
        <filter x="-26.0%" y="-91.7%" width="152.0%" height="316.7%" filterUnits="objectBoundingBox" id="filter-4">
            <feOffset dx="0" dy="1" in="SourceAlpha" result="shadowOffsetOuter1"></feOffset>
            <feGaussianBlur stdDeviation="2" in="shadowOffsetOuter1" result="shadowBlurOuter1"></feGaussianBlur>
            <feColorMatrix values="0 0 0 0 0.0784313725   0 0 0 0 0.223529412   0 0 0 0 0.478431373  0 0 0 0.2 0" type="matrix" in="shadowBlurOuter1"></feColorMatrix>
        </filter>
    </defs>
    <g id="icon/审批管理" stroke="none" stroke-width="1" fill="none" fill-rule="evenodd">
        <path d="M7.5638852,5 L40.4361148,5 C41.3276335,5 41.6509198,5.09282561 41.9768457,5.2671327 C42.3027716,5.4414398 42.5585602,5.69722837 42.7328673,6.0231543 C42.9071744,6.34908022 43,6.67236646 43,7.5638852 L43,43.4361148 C43,44.3276335 42.9071744,44.6509198 42.7328673,44.9768457 C42.5585602,45.3027716 42.3027716,45.5585602 41.9768457,45.7328673 C41.6509198,45.9071744 41.3276335,46 40.4361148,46 L7.5638852,46 C6.67236646,46 6.34908022,45.9071744 6.0231543,45.7328673 C5.69722837,45.5585602 5.4414398,45.3027716 5.2671327,44.9768457 C5.09282561,44.6509198 5,44.3276335 5,43.4361148 L5,7.5638852 C5,6.67236646 5.09282561,6.34908022 5.2671327,6.0231543 C5.4414398,5.69722837 5.69722837,5.4414398 6.0231543,5.2671327 C6.34908022,5.09282561 6.67236646,5 7.5638852,5 Z" id="矩形" fill="#328FF6" fill-rule="nonzero"></path>
        <g id="合并形状" fill-rule="nonzero" transform="translate(26.000000, 21.000000) rotate(-45.000000) translate(-26.000000, -21.000000) ">
            <use fill="black" fill-opacity="1" filter="url(#filter-2)" xlink:href="#path-1"></use>
            <use fill="#FFFFFF" xlink:href="#path-1"></use>
        </g>
        <path d="M11.5,34 L37.5,34 C38.3284271,34 39,34.6715729 39,35.5 C39,36.3284271 38.3284271,37 37.5,37 L11.5,37 C10.6715729,37 10,36.3284271 10,35.5 C10,34.6715729 10.6715729,34 11.5,34 Z" id="矩形" fill="#FFFFFF" fill-rule="nonzero"></path>
        <g id="矩形" fill-rule="nonzero">
            <use fill="black" fill-opacity="1" filter="url(#filter-4)" xlink:href="#path-3"></use>
            <use fill="#2975F9" xlink:href="#path-3"></use>
        </g>
    </g>
</svg>