<?xml version="1.0" encoding="UTF-8"?>
<svg width="48px" height="48px" viewBox="0 0 48 48" version="1.1" xmlns="http://www.w3.org/2000/svg" xmlns:xlink="http://www.w3.org/1999/xlink">
    <title>icon/日记管理</title>
    <defs>
        <path d="M18.2819426,8 L38.7180574,8 C39.1638168,8 39.3254599,8.04641281 39.4884229,8.13356635 C39.6513858,8.2207199 39.7792801,8.34861419 39.8664336,8.51157715 C39.9535872,8.67454011 40,8.83618323 40,9.2819426 L40,13.7180574 C40,14.1638168 39.9535872,14.3254599 39.8664336,14.4884229 C39.7792801,14.6513858 39.6513858,14.7792801 39.4884229,14.8664336 C39.3254599,14.9535872 39.1638168,15 38.7180574,15 L18.2819426,15 C17.8361832,15 17.6745401,14.9535872 17.5115771,14.8664336 C17.3486142,14.7792801 17.2207199,14.6513858 17.1335664,14.4884229 C17.0464128,14.3254599 17,14.1638168 17,13.7180574 L17,9.2819426 C17,8.83618323 17.0464128,8.67454011 17.1335664,8.51157715 C17.2207199,8.34861419 17.3486142,8.2207199 17.5115771,8.13356635 C17.6745401,8.04641281 17.8361832,8 18.2819426,8 Z" id="path-1"></path>
        <filter x="-28.3%" y="-78.6%" width="156.5%" height="285.7%" filterUnits="objectBoundingBox" id="filter-2">
            <feOffset dx="0" dy="1" in="SourceAlpha" result="shadowOffsetOuter1"></feOffset>
            <feGaussianBlur stdDeviation="2" in="shadowOffsetOuter1" result="shadowBlurOuter1"></feGaussianBlur>
            <feColorMatrix values="0 0 0 0 0.352941176   0 0 0 0 0.160784314   0 0 0 0 0.431372549  0 0 0 0.2 0" type="matrix" in="shadowBlurOuter1"></feColorMatrix>
        </filter>
    </defs>
    <g id="icon/日记管理" stroke="none" stroke-width="1" fill="none" fill-rule="evenodd">
        <path d="M7.5638852,2 L40.4361148,2 C41.3276335,2 41.6509198,2.09282561 41.9768457,2.2671327 C42.3027716,2.4414398 42.5585602,2.69722837 42.7328673,3.0231543 C42.9071744,3.34908022 43,3.67236646 43,4.5638852 L43,43.4361148 C43,44.3276335 42.9071744,44.6509198 42.7328673,44.9768457 C42.5585602,45.3027716 42.3027716,45.5585602 41.9768457,45.7328673 C41.6509198,45.9071744 41.3276335,46 40.4361148,46 L7.5638852,46 C6.67236646,46 6.34908022,45.9071744 6.0231543,45.7328673 C5.69722837,45.5585602 5.4414398,45.3027716 5.2671327,44.9768457 C5.09282561,44.6509198 5,44.3276335 5,43.4361148 L5,4.5638852 C5,3.67236646 5.09282561,3.34908022 5.2671327,3.0231543 C5.4414398,2.69722837 5.69722837,2.4414398 6.0231543,2.2671327 C6.34908022,2.09282561 6.67236646,2 7.5638852,2 Z" id="矩形" fill="#C264EB" fill-rule="nonzero"></path>
        <g id="矩形" fill-rule="nonzero">
            <use fill="black" fill-opacity="1" filter="url(#filter-2)" xlink:href="#path-1"></use>
            <use fill="#FFFFFF" xlink:href="#path-1"></use>
        </g>
        <path d="M18.5,27 L38.5,27 C39.3284271,27 40,27.6715729 40,28.5 C40,29.3284271 39.3284271,30 38.5,30 L18.5,30 C17.6715729,30 17,29.3284271 17,28.5 C17,27.6715729 17.6715729,27 18.5,27 Z" id="矩形" fill="#AE4ED4" fill-rule="nonzero"></path>
        <path d="M18.5,35 L38.5,35 C39.3284271,35 40,35.6715729 40,36.5 C40,37.3284271 39.3284271,38 38.5,38 L18.5,38 C17.6715729,38 17,37.3284271 17,36.5 C17,35.6715729 17.6715729,35 18.5,35 Z" id="矩形-copy-2" fill="#AE4ED4" fill-rule="nonzero"></path>
        <path d="M-12.5,19.5 L31.5,19.5 L31.5,25.9361148 C31.5,26.8276335 31.4071744,27.1509198 31.2328673,27.4768457 C31.0585602,27.8027716 30.8027716,28.0585602 30.4768457,28.2328673 C30.1509198,28.4071744 29.8276335,28.5 28.9361148,28.5 L-9.9361148,28.5 C-10.8276335,28.5 -11.1509198,28.4071744 -11.4768457,28.2328673 C-11.8027716,28.0585602 -12.0585602,27.8027716 -12.2328673,27.4768457 C-12.4071744,27.1509198 -12.5,26.8276335 -12.5,25.9361148 L-12.5,19.5 L-12.5,19.5 Z" id="矩形" fill="#AE4ED4" fill-rule="nonzero" transform="translate(9.500000, 24.000000) rotate(-270.000000) translate(-9.500000, -24.000000) "></path>
    </g>
</svg>