<?xml version="1.0" encoding="UTF-8"?>
<svg width="48px" height="48px" viewBox="0 0 48 48" version="1.1" xmlns="http://www.w3.org/2000/svg" xmlns:xlink="http://www.w3.org/1999/xlink">
    <title>icon/权限管理</title>
    <defs>
        <path d="M24,35 C24.5522847,35 25,35.4477153 25,36 L25.0007613,38.1262135 C26.7256022,38.570521 28,40.1364348 28,42 C28,44.209139 26.209139,46 24,46 C21.790861,46 20,44.209139 20,42 C20,40.1360729 21.2748927,38.5699129 23.0002435,38.1259548 L23,36 C23,35.4477153 23.4477153,35 24,35 Z M36.7344762,30.1959778 C37.9817067,28.9247451 39.9747504,28.6042243 41.5884573,29.5358984 C43.5016278,30.6404679 44.1571284,33.0868295 43.0525589,35 C41.9479894,36.9131705 39.5016278,37.5686711 37.5884573,36.4641016 C35.9744165,35.5322347 35.2555102,33.64536 35.7334087,31.9293259 L33.8923048,30.8660254 C33.4140122,30.589883 33.2501371,29.9782926 33.5262794,29.5 C33.8024218,29.0217074 34.4140122,28.8578322 34.8923048,29.1339746 Z M6.41154273,29.5358984 C8.02524965,28.6042243 10.0182933,28.9247451 11.2655238,30.1959778 L13.1076952,29.1339746 C13.5859878,28.8578322 14.1975782,29.0217074 14.4737206,29.5 C14.7498629,29.9782926 14.5859878,30.589883 14.1076952,30.8660254 L12.2665913,31.9293259 C12.7444898,33.64536 12.0255835,35.5322347 10.4115427,36.4641016 C8.49837224,37.5686711 6.05201062,36.9131705 4.94744112,35 C3.84287162,33.0868295 4.49837224,30.6404679 6.41154273,29.5358984 Z M37.5884573,11.5358984 C39.5016278,10.4313289 41.9479894,11.0868295 43.0525589,13 C44.1571284,14.9131705 43.5016278,17.3595321 41.5884573,18.4641016 C39.9747504,19.3957757 37.9817067,19.0752549 36.7344762,17.8040222 L34.8923048,18.8660254 C34.4140122,19.1421678 33.8024218,18.9782926 33.5262794,18.5 C33.2501371,18.0217074 33.4140122,17.410117 33.8923048,17.1339746 L35.7334087,16.0706741 C35.2555102,14.35464 35.9744165,12.4677653 37.5884573,11.5358984 Z M4.94744112,13 C6.05201062,11.0868295 8.49837224,10.4313289 10.4115427,11.5358984 C12.0255835,12.4677653 12.7444898,14.35464 12.2665913,16.0706741 L14.1076952,17.1339746 C14.5859878,17.410117 14.7498629,18.0217074 14.4737206,18.5 C14.1975782,18.9782926 13.5859878,19.1421678 13.1076952,18.8660254 L11.2655238,17.8040222 C10.0182933,19.0752549 8.02524965,19.3957757 6.41154273,18.4641016 C4.49837224,17.3595321 3.84287162,14.9131705 4.94744112,13 Z M24,2 C26.209139,2 28,3.790861 28,6 C28,7.86356525 26.7256022,9.42947895 25.0007613,9.87378648 L25,12 C25,12.5522847 24.5522847,13 24,13 C23.4477153,13 23,12.5522847 23,12 L23.0002435,9.87404517 C21.2748927,9.43008706 20,7.86392711 20,6 C20,3.790861 21.790861,2 24,2 Z" id="path-1"></path>
        <filter x="-16.6%" y="-12.5%" width="133.2%" height="129.5%" filterUnits="objectBoundingBox" id="filter-2">
            <feOffset dx="0" dy="1" in="SourceAlpha" result="shadowOffsetOuter1"></feOffset>
            <feGaussianBlur stdDeviation="2" in="shadowOffsetOuter1" result="shadowBlurOuter1"></feGaussianBlur>
            <feColorMatrix values="0 0 0 0 0.450980392   0 0 0 0 0.062745098   0 0 0 0 0.0274509804  0 0 0 0.2 0" type="matrix" in="shadowBlurOuter1"></feColorMatrix>
        </filter>
    </defs>
    <g id="icon/权限管理" stroke="none" stroke-width="1" fill="none" fill-rule="evenodd">
        <path d="M24.5,8.46410162 L10.6125046,16.4820508 L10.6125046,32.5179492 L24.5,40.5358984 L38.3874954,32.5179492 L38.3874954,16.4820508 L24.5,8.46410162 Z M24.5,5 L41.3874954,14.75 L41.3874954,34.25 L24.5,44 L7.61250463,34.25 L7.61250463,14.75 L24.5,5 Z" id="多边形" fill="#D8200E" fill-rule="nonzero"></path>
        <g id="合并形状" fill-rule="nonzero">
            <use fill="black" fill-opacity="1" filter="url(#filter-2)" xlink:href="#path-1"></use>
            <use fill="#FD4541" xlink:href="#path-1"></use>
        </g>
        <polygon id="多边形-copy" fill="#FD4541" fill-rule="nonzero" points="24.5 16 31.8612159 20.25 31.8612159 28.75 24.5 33 17.1387841 28.75 17.1387841 20.25"></polygon>
    </g>
</svg>