<?xml version="1.0" encoding="UTF-8"?>
<svg width="48px" height="48px" viewBox="0 0 48 48" version="1.1" xmlns="http://www.w3.org/2000/svg" xmlns:xlink="http://www.w3.org/1999/xlink">
    <title>icon/科组部门管理</title>
    <g id="icon/科组部门管理" stroke="none" stroke-width="1" fill="none" fill-rule="evenodd">
        <path d="M24,16 C24.8284271,16 25.5,16.6715729 25.5,17.5 L25.5,21 L40.5,21 L40.5,21 C41.3284271,21 42,21.6715729 42,22.5 L42,30.5 C42,31.3284271 41.3284271,32 40.5,32 C39.6715729,32 39,31.3284271 39,30.5 L39,24 L25.5,24 L25.5,30.5 C25.5,31.3284271 24.8284271,32 24,32 C23.1715729,32 22.5,31.3284271 22.5,30.5 L22.5,23.999 L10,23.999 L10,30.5 C10,31.3284271 9.32842712,32 8.5,32 C7.67157288,32 7,31.3284271 7,30.5 L7,22.5 C7,21.7203039 7.59488808,21.0795513 8.35553999,21.0068666 L8.5,21 L8.5,21 L22.5,20.999 L22.5,17.5 C22.5,16.6715729 23.1715729,16 24,16 Z" id="合并形状" fill="#2975F9" fill-rule="nonzero"></path>
        <path d="M16.5638852,2 L31.4361148,2 C32.3276335,2 32.6509198,2.09282561 32.9768457,2.2671327 C33.3027716,2.4414398 33.5585602,2.69722837 33.7328673,3.0231543 C33.9071744,3.34908022 34,3.67236646 34,4.5638852 L34,11.4361148 C34,12.3276335 33.9071744,12.6509198 33.7328673,12.9768457 C33.5585602,13.3027716 33.3027716,13.5585602 32.9768457,13.7328673 C32.6509198,13.9071744 32.3276335,14 31.4361148,14 L16.5638852,14 C15.6723665,14 15.3490802,13.9071744 15.0231543,13.7328673 C14.6972284,13.5585602 14.4414398,13.3027716 14.2671327,12.9768457 C14.0928256,12.6509198 14,12.3276335 14,11.4361148 L14,4.5638852 C14,3.67236646 14.0928256,3.34908022 14.2671327,3.0231543 C14.4414398,2.69722837 14.6972284,2.4414398 15.0231543,2.2671327 C15.3490802,2.09282561 15.6723665,2 16.5638852,2 Z" id="矩形" fill="#2975F9" fill-rule="nonzero"></path>
        <path d="M4.5638852,34 L11.4361148,34 C12.3276335,34 12.6509198,34.0928256 12.9768457,34.2671327 C13.3027716,34.4414398 13.5585602,34.6972284 13.7328673,35.0231543 C13.9071744,35.3490802 14,35.6723665 14,36.5638852 L14,43.4361148 C14,44.3276335 13.9071744,44.6509198 13.7328673,44.9768457 C13.5585602,45.3027716 13.3027716,45.5585602 12.9768457,45.7328673 C12.6509198,45.9071744 12.3276335,46 11.4361148,46 L4.5638852,46 C3.67236646,46 3.34908022,45.9071744 3.0231543,45.7328673 C2.69722837,45.5585602 2.4414398,45.3027716 2.2671327,44.9768457 C2.09282561,44.6509198 2,44.3276335 2,43.4361148 L2,36.5638852 C2,35.6723665 2.09282561,35.3490802 2.2671327,35.0231543 C2.4414398,34.6972284 2.69722837,34.4414398 3.0231543,34.2671327 C3.34908022,34.0928256 3.67236646,34 4.5638852,34 Z" id="矩形-copy-4" fill="#62A6F5" fill-rule="nonzero"></path>
        <path d="M20.5638852,34 L27.4361148,34 C28.3276335,34 28.6509198,34.0928256 28.9768457,34.2671327 C29.3027716,34.4414398 29.5585602,34.6972284 29.7328673,35.0231543 C29.9071744,35.3490802 30,35.6723665 30,36.5638852 L30,43.4361148 C30,44.3276335 29.9071744,44.6509198 29.7328673,44.9768457 C29.5585602,45.3027716 29.3027716,45.5585602 28.9768457,45.7328673 C28.6509198,45.9071744 28.3276335,46 27.4361148,46 L20.5638852,46 C19.6723665,46 19.3490802,45.9071744 19.0231543,45.7328673 C18.6972284,45.5585602 18.4414398,45.3027716 18.2671327,44.9768457 C18.0928256,44.6509198 18,44.3276335 18,43.4361148 L18,36.5638852 C18,35.6723665 18.0928256,35.3490802 18.2671327,35.0231543 C18.4414398,34.6972284 18.6972284,34.4414398 19.0231543,34.2671327 C19.3490802,34.0928256 19.6723665,34 20.5638852,34 Z" id="矩形-copy-5" fill="#62A6F5" fill-rule="nonzero"></path>
        <path d="M36.5638852,34 L43.4361148,34 C44.3276335,34 44.6509198,34.0928256 44.9768457,34.2671327 C45.3027716,34.4414398 45.5585602,34.6972284 45.7328673,35.0231543 C45.9071744,35.3490802 46,35.6723665 46,36.5638852 L46,43.4361148 C46,44.3276335 45.9071744,44.6509198 45.7328673,44.9768457 C45.5585602,45.3027716 45.3027716,45.5585602 44.9768457,45.7328673 C44.6509198,45.9071744 44.3276335,46 43.4361148,46 L36.5638852,46 C35.6723665,46 35.3490802,45.9071744 35.0231543,45.7328673 C34.6972284,45.5585602 34.4414398,45.3027716 34.2671327,44.9768457 C34.0928256,44.6509198 34,44.3276335 34,43.4361148 L34,36.5638852 C34,35.6723665 34.0928256,35.3490802 34.2671327,35.0231543 C34.4414398,34.6972284 34.6972284,34.4414398 35.0231543,34.2671327 C35.3490802,34.0928256 35.6723665,34 36.5638852,34 Z" id="矩形-copy-6" fill="#62A6F5" fill-rule="nonzero"></path>
    </g>
</svg>