<?xml version="1.0" encoding="UTF-8"?>
<svg width="48px" height="48px" viewBox="0 0 48 48" version="1.1" xmlns="http://www.w3.org/2000/svg" xmlns:xlink="http://www.w3.org/1999/xlink">
    <title>icon/签审人员查询</title>
    <defs>
        <path d="M36.2522684,28 C40.8098704,28 44.5045368,31.6946664 44.5045368,36.2522684 C44.5045368,37.9715929 43.9787398,39.5681109 43.0791712,40.8897969 L45.5468062,43.3585931 C45.7565618,43.5683487 45.8963989,43.8114835 45.9663174,44.0657447 C46.0362359,44.3200059 46.0362359,44.5853935 45.9663174,44.8396547 C45.8963989,45.0939159 45.7565618,45.3370506 45.5468062,45.5468062 C45.3370506,45.7565618 45.0939159,45.8963989 44.8396547,45.9663174 C44.5853935,46.0362359 44.3200059,46.0362359 44.0657447,45.9663174 C43.8114835,45.8963989 43.5683487,45.7565618 43.3585931,45.5468062 L40.8897969,43.0791712 C39.5681109,43.9787398 37.9715929,44.5045368 36.2522684,44.5045368 C31.6946664,44.5045368 28,40.8098704 28,36.2522684 C28,31.6946664 31.6946664,28 36.2522684,28 Z" id="path-1"></path>
        <filter x="-36.1%" y="-30.6%" width="172.3%" height="172.3%" filterUnits="objectBoundingBox" id="filter-2">
            <feOffset dx="0" dy="1" in="SourceAlpha" result="shadowOffsetOuter1"></feOffset>
            <feGaussianBlur stdDeviation="2" in="shadowOffsetOuter1" result="shadowBlurOuter1"></feGaussianBlur>
            <feComposite in="shadowBlurOuter1" in2="SourceAlpha" operator="out" result="shadowBlurOuter1"></feComposite>
            <feColorMatrix values="0 0 0 0 0.0784313725   0 0 0 0 0.223529412   0 0 0 0 0.478431373  0 0 0 0.2 0" type="matrix" in="shadowBlurOuter1"></feColorMatrix>
        </filter>
    </defs>
    <g id="icon/签审人员查询" stroke="none" stroke-width="1" fill="none" fill-rule="evenodd">
        <g id="分组-2" fill-rule="nonzero">
            <path d="M34.4361148,5 C35.3276335,5 35.6509198,5.09282561 35.9768457,5.2671327 C36.3027716,5.4414398 36.5585602,5.69722837 36.7328673,6.0231543 C36.9071744,6.34908022 37,6.67236646 37,7.5638852 L37,42.4361148 C37,43.3276335 36.9071744,43.6509198 36.7328673,43.9768457 C36.5585602,44.3027716 36.3027716,44.5585602 35.9768457,44.7328673 C35.6509198,44.9071744 35.3276335,45 34.4361148,45 L4.5638852,45 C3.67236646,45 3.34908022,44.9071744 3.0231543,44.7328673 C2.69722837,44.5585602 2.4414398,44.3027716 2.2671327,43.9768457 C2.09282561,43.6509198 2,43.3276335 2,42.4361148 L2,7.5638852 C2,6.67236646 2.09282561,6.34908022 2.2671327,6.0231543 C2.4414398,5.69722837 2.69722837,5.4414398 3.0231543,5.2671327 C3.34908022,5.09282561 3.67236646,5 4.5638852,5 L8.12599558,5.0000851 C8.04374524,5.3196794 8,5.65473108 8,6 C8,8.209139 9.790861,10 12,10 L12,10 L27,10 C29.209139,10 31,8.209139 31,6 C31,5.65473108 30.9562548,5.3196794 30.8740044,5.0000851 L34.4361148,5 Z" id="合并形状" fill="#2975F9"></path>
            <path d="M8.5,18 L30.5,18 C31.3284271,18 32,18.6715729 32,19.5 C32,20.3284271 31.3284271,21 30.5,21 L8.5,21 C7.67157288,21 7,20.3284271 7,19.5 C7,18.6715729 7.67157288,18 8.5,18 Z" id="矩形" fill="#FFFFFF"></path>
            <path d="M8.5,26 L18.5,26 C19.3284271,26 20,26.6715729 20,27.5 C20,28.3284271 19.3284271,29 18.5,29 L8.5,29 C7.67157288,29 7,28.3284271 7,27.5 C7,26.6715729 7.67157288,26 8.5,26 Z" id="矩形-copy-2" fill="#FFFFFF"></path>
            <g id="合并形状">
                <use fill="black" fill-opacity="1" filter="url(#filter-2)" xlink:href="#path-1"></use>
                <path stroke="#338FF6" stroke-width="3" d="M36.2522684,29.5 C38.1168559,29.5 39.804923,30.2557734 41.0268432,31.4776936 C42.2487635,32.6996139 43.0045368,34.387681 43.0045368,36.2522684 C43.0045368,38.0993424 42.2635404,39.7735263 41.0607578,40.9922533 L41.0607578,40.9922533 L44.4861461,44.4192533 L40.9922533,41.0607578 C39.7735262,42.2635404 38.0993424,43.0045368 36.2522684,43.0045368 C34.387681,43.0045368 32.6996139,42.2487635 31.4776936,41.0268432 C30.2557734,39.804923 29.5,38.1168559 29.5,36.2522684 C29.5,34.387681 30.2557734,32.6996139 31.4776936,31.4776936 C32.6996139,30.2557734 34.387681,29.5 36.2522684,29.5 Z" stroke-linejoin="square" fill-opacity="0.6" fill="#FFFFFF" fill-rule="evenodd"></path>
            </g>
            <path d="M12.5092038,2 L26.4907962,2 C27.3166973,2 27.6509198,2.09282561 27.9768457,2.2671327 C28.3027716,2.4414398 28.5585602,2.69722837 28.7328673,3.0231543 C28.9071744,3.34908022 29,3.68330273 29,4.50920383 L29,5.49079617 C29,6.31669727 28.9071744,6.65091978 28.7328673,6.9768457 C28.5585602,7.30277163 28.3027716,7.5585602 27.9768457,7.7328673 C27.6509198,7.90717439 27.3166973,8 26.4907962,8 L12.5092038,8 C11.6833027,8 11.3490802,7.90717439 11.0231543,7.7328673 C10.6972284,7.5585602 10.4414398,7.30277163 10.2671327,6.9768457 C10.0928256,6.65091978 10,6.31669727 10,5.49079617 L10,4.50920383 C10,3.68330273 10.0928256,3.34908022 10.2671327,3.0231543 C10.4414398,2.69722837 10.6972284,2.4414398 11.0231543,2.2671327 C11.3490802,2.09282561 11.6833027,2 12.5092038,2 Z" id="矩形" fill="#2975F9"></path>
        </g>
    </g>
</svg>