<?xml version="1.0" encoding="UTF-8"?>
<svg width="48px" height="48px" viewBox="0 0 48 48" version="1.1" xmlns="http://www.w3.org/2000/svg" xmlns:xlink="http://www.w3.org/1999/xlink">
    <title>icon/节目分流</title>
    <defs>
        <path d="M27.2149859,20.3583098 L32.6826051,29.4710085 C33.2509014,30.418169 32.9437713,31.6466895 31.9966108,32.2149859 C31.6857799,32.4014843 31.3301071,32.5 30.9676192,32.5 L20.0323808,32.5 C18.9278113,32.5 18.0323808,31.6045695 18.0323808,30.5 C18.0323808,30.1375121 18.1308964,29.7818393 18.3173949,29.4710085 L23.7850141,20.3583098 C24.3533105,19.4111492 25.581831,19.1040191 26.5289915,19.6723154 C26.8104907,19.8412149 27.0460863,20.0768105 27.2149859,20.3583098 Z" id="path-1"></path>
        <filter x="-27.6%" y="-24.1%" width="155.2%" height="174.1%" filterUnits="objectBoundingBox" id="filter-2">
            <feOffset dx="0" dy="1" in="SourceAlpha" result="shadowOffsetOuter1"></feOffset>
            <feGaussianBlur stdDeviation="2" in="shadowOffsetOuter1" result="shadowBlurOuter1"></feGaussianBlur>
            <feColorMatrix values="0 0 0 0 0.352941176   0 0 0 0 0.160784314   0 0 0 0 0.431372549  0 0 0 0.2 0" type="matrix" in="shadowBlurOuter1"></feColorMatrix>
        </filter>
    </defs>
    <g id="icon/节目分流" stroke="none" stroke-width="1" fill="none" fill-rule="evenodd">
        <path d="M12.5,2 C13.3284271,2 14,2.67157288 14,3.5 L14,6.5 C14,7.32842712 13.3284271,8 12.5,8 C11.6715729,8 11,7.32842712 11,6.5 L11,3.5 C11,2.67157288 11.6715729,2 12.5,2 Z M24,2 C24.8284271,2 25.5,2.67157288 25.5,3.5 L25.5,6.5 C25.5,7.32842712 24.8284271,8 24,8 C23.1715729,8 22.5,7.32842712 22.5,6.5 L22.5,3.5 C22.5,2.67157288 23.1715729,2 24,2 Z M35.5,2 C36.3284271,2 37,2.67157288 37,3.5 L37,6.5 C37,7.32842712 36.3284271,8 35.5,8 C34.6715729,8 34,7.32842712 34,6.5 L34,3.5 C34,2.67157288 34.6715729,2 35.5,2 Z" id="合并形状" fill="#AE4ED4" fill-rule="nonzero"></path>
        <path d="M12.5,40 C13.3284271,40 14,40.6715729 14,41.5 L14,44.5 C14,45.3284271 13.3284271,46 12.5,46 C11.6715729,46 11,45.3284271 11,44.5 L11,41.5 C11,40.6715729 11.6715729,40 12.5,40 Z M24,40 C24.8284271,40 25.5,40.6715729 25.5,41.5 L25.5,44.5 C25.5,45.3284271 24.8284271,46 24,46 C23.1715729,46 22.5,45.3284271 22.5,44.5 L22.5,41.5 C22.5,40.6715729 23.1715729,40 24,40 Z M35.5,40 C36.3284271,40 37,40.6715729 37,41.5 L37,44.5 C37,45.3284271 36.3284271,46 35.5,46 C34.6715729,46 34,45.3284271 34,44.5 L34,41.5 C34,40.6715729 34.6715729,40 35.5,40 Z" id="合并形状-copy" fill="#AE4ED4" fill-rule="nonzero"></path>
        <path d="M-6.5,21 C-5.67157288,21 -5,21.6715729 -5,22.5 L-5,25.5 C-5,26.3284271 -5.67157288,27 -6.5,27 C-7.32842712,27 -8,26.3284271 -8,25.5 L-8,22.5 C-8,21.6715729 -7.32842712,21 -6.5,21 Z M5,21 C5.82842712,21 6.5,21.6715729 6.5,22.5 L6.5,25.5 C6.5,26.3284271 5.82842712,27 5,27 C4.17157288,27 3.5,26.3284271 3.5,25.5 L3.5,22.5 C3.5,21.6715729 4.17157288,21 5,21 Z M16.5,21 C17.3284271,21 18,21.6715729 18,22.5 L18,25.5 C18,26.3284271 17.3284271,27 16.5,27 C15.6715729,27 15,26.3284271 15,25.5 L15,22.5 C15,21.6715729 15.6715729,21 16.5,21 Z" id="合并形状-copy-3" fill="#AE4ED4" fill-rule="nonzero" transform="translate(5.000000, 24.000000) rotate(-90.000000) translate(-5.000000, -24.000000) "></path>
        <path d="M31.5,21 C32.3284271,21 33,21.6715729 33,22.5 L33,25.5 C33,26.3284271 32.3284271,27 31.5,27 C30.6715729,27 30,26.3284271 30,25.5 L30,22.5 C30,21.6715729 30.6715729,21 31.5,21 Z M43,21 C43.8284271,21 44.5,21.6715729 44.5,22.5 L44.5,25.5 C44.5,26.3284271 43.8284271,27 43,27 C42.1715729,27 41.5,26.3284271 41.5,25.5 L41.5,22.5 C41.5,21.6715729 42.1715729,21 43,21 Z M54.5,21 C55.3284271,21 56,21.6715729 56,22.5 L56,25.5 C56,26.3284271 55.3284271,27 54.5,27 C53.6715729,27 53,26.3284271 53,25.5 L53,22.5 C53,21.6715729 53.6715729,21 54.5,21 Z" id="合并形状-copy-2" fill="#AE4ED4" fill-rule="nonzero" transform="translate(43.000000, 24.000000) rotate(-90.000000) translate(-43.000000, -24.000000) "></path>
        <path d="M7.5638852,5 L40.4361148,5 C41.3276335,5 41.6509198,5.09282561 41.9768457,5.2671327 C42.3027716,5.4414398 42.5585602,5.69722837 42.7328673,6.0231543 C42.9071744,6.34908022 43,6.67236646 43,7.5638852 L43,40.4361148 C43,41.3276335 42.9071744,41.6509198 42.7328673,41.9768457 C42.5585602,42.3027716 42.3027716,42.5585602 41.9768457,42.7328673 C41.6509198,42.9071744 41.3276335,43 40.4361148,43 L7.5638852,43 C6.67236646,43 6.34908022,42.9071744 6.0231543,42.7328673 C5.69722837,42.5585602 5.4414398,42.3027716 5.2671327,41.9768457 C5.09282561,41.6509198 5,41.3276335 5,40.4361148 L5,7.5638852 C5,6.67236646 5.09282561,6.34908022 5.2671327,6.0231543 C5.4414398,5.69722837 5.69722837,5.4414398 6.0231543,5.2671327 C6.34908022,5.09282561 6.67236646,5 7.5638852,5 Z" id="矩形-copy" fill="#C264EB" fill-rule="nonzero"></path>
        <path d="M14.5638852,12 L33.4361148,12 C34.3276335,12 34.6509198,12.0928256 34.9768457,12.2671327 C35.3027716,12.4414398 35.5585602,12.6972284 35.7328673,13.0231543 C35.9071744,13.3490802 36,13.6723665 36,14.5638852 L36,33.4361148 C36,34.3276335 35.9071744,34.6509198 35.7328673,34.9768457 C35.5585602,35.3027716 35.3027716,35.5585602 34.9768457,35.7328673 C34.6509198,35.9071744 34.3276335,36 33.4361148,36 L14.5638852,36 C13.6723665,36 13.3490802,35.9071744 13.0231543,35.7328673 C12.6972284,35.5585602 12.4414398,35.3027716 12.2671327,34.9768457 C12.0928256,34.6509198 12,34.3276335 12,33.4361148 L12,14.5638852 C12,13.6723665 12.0928256,13.3490802 12.2671327,13.0231543 C12.4414398,12.6972284 12.6972284,12.4414398 13.0231543,12.2671327 C13.3490802,12.0928256 13.6723665,12 14.5638852,12 Z" id="矩形" fill="#AE4ED4" fill-rule="nonzero"></path>
        <g id="三角形" fill-rule="nonzero" transform="translate(25.500000, 25.000000) rotate(-270.000000) translate(-25.500000, -25.000000) ">
            <use fill="black" fill-opacity="1" filter="url(#filter-2)" xlink:href="#path-1"></use>
            <use fill="#FFFFFF" xlink:href="#path-1"></use>
        </g>
    </g>
</svg>