<svg id="Capa_1" enable-background="new 0 0 512 512" height="512" viewBox="0 0 512 512" width="512" xmlns="http://www.w3.org/2000/svg"><g><g><path d="m456.929 407.197c27.768-39.723 44.071-88.053 44.071-140.197 0-135.31-109.69-245-245-245s-245 109.69-245 245c0 52.144 16.303 100.474 44.071 140.197z" fill="#ff72c3"/></g><g><circle cx="256" cy="242" fill="#ff94d2" r="200"/></g><g><path d="m267.804 46.042c-3.333 0-6.376-2.239-7.253-5.616-1.042-4.009 1.363-8.104 5.373-9.145l71.347-18.541c4.007-1.043 8.104 1.363 9.145 5.373 1.042 4.009-1.363 8.104-5.373 9.145l-71.347 18.541c-.633.165-1.268.243-1.892.243z" fill="#c83c50"/></g><g><circle cx="339.156" cy="20" fill="#f44545" r="20"/></g><g><path d="m334.156 20c0-8.391 5.173-15.564 12.5-18.533-2.318-.939-4.846-1.467-7.5-1.467-11.046 0-20 8.954-20 20s8.954 20 20 20c2.654 0 5.182-.528 7.5-1.467-7.327-2.969-12.5-10.142-12.5-18.533z" fill="#de414a"/></g><g><path d="m244.196 46.042c-.625 0-1.259-.079-1.892-.243l-71.347-18.541c-4.009-1.042-6.415-5.136-5.373-9.145s5.138-6.414 9.145-5.373l71.347 18.541c4.009 1.042 6.415 5.136 5.373 9.145-.877 3.377-3.92 5.616-7.253 5.616z" fill="#c83c50"/></g><g><circle cx="172.844" cy="20" fill="#f44545" r="20"/></g><g><path d="m167.844 20c0-8.391 5.173-15.564 12.5-18.533-2.317-.939-4.845-1.467-7.5-1.467-11.046 0-20 8.954-20 20s8.954 20 20 20c2.654 0 5.182-.528 7.5-1.467-7.326-2.969-12.5-10.142-12.5-18.533z" fill="#de414a"/></g><g><ellipse cx="256" cy="22" fill="#254167" rx="43.951" ry="22"/></g><g><path d="m329.617 57.707c-19.156-23.755-45.3-36.837-73.617-36.837s-54.461 13.083-73.617 36.837c-18.688 23.175-28.98 54.799-28.98 89.047l-11.703 46.516c-11.117 44.189 16.834 88.862 61.497 97.888 16.837 3.403 34.931 5.752 52.803 5.752s35.966-2.349 52.803-5.752c44.663-9.027 72.614-53.7 61.497-97.888l-11.702-46.515c-.001-34.249-10.293-65.873-28.981-89.048z" fill="#0956c6"/></g><g><path d="m256 20.87c-28.317 0-54.461 13.083-73.617 36.837-18.688 23.175-28.98 54.799-28.98 89.047l-11.702 46.515c-11.117 44.189 16.834 88.862 61.497 97.889 15.522 3.137 32.112 5.354 48.613 5.684 13.573-54.415-2.476-122.404-16.427-153.779-20.596-46.32-18.214-96.659 20.616-122.193z" fill="#0a4499"/></g><g><path d="m303.386 220.734h-94.772v159.104l47.386 69.971 47.386-69.972z" fill="#f9d0a5"/></g><g><path d="m268.73 301.292c26.15-17.428 34.656-39.865 34.656-39.865v-40.693h-94.772v159.103l47.386 69.972 27.661-40.845c-13.174-21.948-22.93-42.508-29.748-58.791-7.434-17.75-1.196-38.209 14.817-48.881z" fill="#f2bb88"/></g><g><path d="m331.058 159.567s10.385-25.285 28.897-19.415-.448 60.664-36.573 64.116z" fill="#f9d0a5"/></g><g><path d="m180.942 159.567s-10.385-25.285-28.897-19.415.448 60.664 36.573 64.116z" fill="#f2bb88"/></g><g><path d="m343.549 143.073-.038-.009-27.855-54.367s-1.13 27.454-10.092 49.675c-1.138 2.822-3.849 4.693-6.892 4.693-3.425 0-6.392-2.348-7.196-5.678-1.088-4.501-2.866-10.182-5.657-15.151 0 0-1.266 9.332-6.467 17.508-1.334 2.097-3.691 3.321-6.177 3.321h-59.885c-3.043 0-5.754-1.871-6.892-4.693-8.962-22.221-10.092-49.675-10.092-49.675l-27.853 54.363c-.029 1.226-.048 2.456-.048 3.696 0 64.505 39.219 140.155 87.597 140.155s87.597-75.651 87.597-140.155c-.002-1.236-.021-2.462-.05-3.683z" fill="#ffe4c2"/></g><g><path d="m208.403 146.754c0-1.842.036-3.666.099-5.478-.905-.772-1.641-1.754-2.106-2.906-8.962-22.221-10.092-49.675-10.092-49.675l-27.853 54.363c-.029 1.226-.048 2.456-.048 3.696 0 64.505 39.219 140.155 87.597 140.155 6.881 0 13.576-1.535 20-4.346-38.741-16.952-67.597-80.479-67.597-135.809z" fill="#f9d0a5"/></g><g><g><path d="m242.013 192.447 8.436-13.441c2.569-4.093 8.533-4.093 11.102 0l8.436 13.441c2.739 4.365-.398 10.038-5.551 10.038h-16.871c-5.154-.001-8.291-5.674-5.552-10.038z" fill="#f9d0a5"/></g></g><g><g><path d="m235.384 240.87h41.233c4.111-3.622 7.258-8.309 9.01-13.631 1.584-4.811-2.069-9.754-7.134-9.754h-44.985c-5.065 0-8.718 4.943-7.134 9.754 1.752 5.322 4.899 10.009 9.01 13.631z" fill="#254167"/></g><g><path d="m276.616 240.87c-5.493 4.849-12.714 7.798-20.616 7.798s-15.124-2.948-20.616-7.798c5.5-4.849 12.714-7.798 20.616-7.798s15.116 2.949 20.616 7.798z" fill="#f44545"/></g></g><g><path d="m310.999 162.085c.043-3.495-1.371-7.004-4.242-9.539-4.675-4.128-11.84-4.128-16.515 0-2.871 2.535-4.284 6.044-4.242 9.539.055 4.538 5.629 6.716 8.838 3.507 2.022-2.022 5.3-2.022 7.322 0 3.21 3.21 8.784 1.032 8.839-3.507z" fill="#254167"/></g><g><path d="m201.001 162.085c-.043-3.495 1.371-7.004 4.242-9.539 4.675-4.128 11.84-4.128 16.515 0 2.871 2.535 4.284 6.044 4.242 9.539-.055 4.538-5.629 6.716-8.838 3.507-2.022-2.022-5.3-2.022-7.322 0-3.21 3.21-8.784 1.032-8.839-3.507z" fill="#254167"/></g><g><path d="m55.092 407.139c9.221-25.363 19.04-47.328 27.391-54.702 13.969-12.334 55.42-23.269 87.139-30.177l86.378 127.549 18.878 61.462c-6.231.476-12.525.729-18.878.729-83.166 0-156.64-41.447-200.929-104.803.008-.019.014-.038.021-.058z" fill="#fb5858"/></g><g><path d="m342.379 322.26c31.718 6.908 73.169 17.844 87.138 30.177 8.351 7.373 18.17 29.339 27.391 54.702.007.02.014.039.021.058-31.554 45.139-77.932 79.138-132.067 94.967l-68.862-52.355z" fill="#f44545"/></g><g><path d="m350.924 492.894c-28.572-26.358-50.647-56.247-67.263-83.93l-27.661 40.845 68.862 52.356c8.909-2.606 17.604-5.713 26.062-9.271z" fill="#c83c50"/></g><g><path d="m244.872 433.377c43.378-63.426 58.514-118.709 58.514-118.709 3.092.52 19.136 3.268 38.992 7.592-4.024 21.812-19.677 87.275-70.381 151.17z" fill="#fff5f5"/></g><g><path d="m272.089 388.491c-7.475 13.987-16.48 29.186-27.217 44.885l27.125 40.053c10.635-13.402 19.723-26.872 27.491-39.995-10.779-15.453-19.848-30.734-27.399-44.943z" fill="#e1ebf0"/></g><g><path d="m324.877 502.176c-16.045 4.693-32.77 7.791-49.996 9.104-78.855-73.762-100.428-162.839-105.259-189.02 19.856-4.324 35.9-7.072 38.992-7.592 0 0 27.84 101.719 116.263 187.508z" fill="#fff5f5"/></g><g><path d="m120.812 471.33c-.075-.212-8.769-24.824 4.705-53.619 2.512-5.369-4.447-10.154-8.544-5.871-8.577 8.966-17.032 22.169-20.587 41.004 7.736 6.653 15.895 12.828 24.426 18.486z" fill="#f44545"/></g><g><path d="m391.188 471.33c.075-.212 8.769-24.824-4.705-53.619-2.512-5.369 4.447-10.154 8.544-5.871 8.577 8.966 17.032 22.169 20.587 41.004-7.736 6.653-15.895 12.828-24.426 18.486z" fill="#c83c50"/></g></g></svg>