<svg id="Capa_1" enable-background="new 0 0 512 512" height="512" viewBox="0 0 512 512" width="512" xmlns="http://www.w3.org/2000/svg"><g><g><path d="m456.929 407.197c27.768-39.723 44.071-88.053 44.071-140.197 0-135.31-109.69-245-245-245s-245 109.69-245 245c0 52.144 16.303 100.474 44.071 140.197z" fill="#55a4f9"/></g><g><circle cx="256" cy="242" fill="#76b6fa" r="200"/></g><g><g><g><path d="m283.348 477.197-117.014-202.673-34.641 20 105.467 182.673z" fill="#493832"/></g><g><path d="m71.003 149.406c-9.566 5.523-12.843 17.755-7.321 27.32l69.021 119.547 34.641-20-69.02-119.546c-5.523-9.566-17.755-12.844-27.321-7.321z" fill="#5f4e47"/></g><g><path d="m81.003 166.727 69.021 119.547-17.321 10-69.02-119.547c-5.523-9.566-2.245-21.798 7.321-27.321 3.159-1.824 6.607-2.669 10.009-2.664-3.443 5.983-3.709 13.578-.01 19.985z" fill="#493832"/></g><g><path d="m140.428 248.558-10.19-1.552c-1.85-.282-3.647.756-4.328 2.499l-3.751 9.601c-.466 1.194.295 2.512 1.562 2.705l10.19 1.552c1.85.282 3.647-.756 4.328-2.499l3.751-9.601c.467-1.193-.294-2.512-1.562-2.705z" fill="#493832"/></g><g><path d="m124.051 220.192-10.19-1.552c-1.85-.282-3.647.756-4.328 2.499l-3.751 9.601c-.466 1.194.295 2.512 1.562 2.705l10.19 1.552c1.85.282 3.647-.756 4.328-2.499l3.751-9.601c.466-1.194-.295-2.512-1.562-2.705z" fill="#493832"/></g><g><path d="m107.673 191.825-10.19-1.552c-1.85-.282-3.647.756-4.328 2.499l-3.751 9.601c-.466 1.194.295 2.512 1.562 2.705l10.19 1.552c1.85.282 3.647-.756 4.328-2.499l3.751-9.601c.467-1.194-.294-2.512-1.562-2.705z" fill="#493832"/></g><g><path d="m91.296 163.458-10.19-1.552c-1.85-.282-3.647.756-4.328 2.499l-3.751 9.601c-.466 1.194.295 2.512 1.562 2.705l10.19 1.552c1.85.282 3.647-.756 4.328-2.499l3.751-9.601c.466-1.193-.295-2.512-1.562-2.705z" fill="#493832"/></g><g><path d="m165.664 263.363-43.301 25c-4.783 2.761-6.422 8.877-3.66 13.66 2.761 4.783 8.877 6.422 13.66 3.66l43.301-25c4.783-2.761 6.422-8.877 3.66-13.66-2.761-4.782-8.877-6.421-13.66-3.66z" fill="#77625a"/></g><g><path d="m138.842 290.396c2.761 4.783 8.877 6.422 13.66 3.66l-20.14 11.628c-4.783 2.761-10.899 1.123-13.66-3.66s-1.123-10.899 3.66-13.66l20.14-11.628c-4.782 2.761-6.421 8.877-3.66 13.66z" fill="#5f4e47"/></g></g><g><g><path d="m228.652 477.197 117.014-202.673 34.641 20-105.467 182.673z" fill="#493832"/></g><g><path d="m440.997 149.406c9.566 5.523 12.843 17.755 7.321 27.32l-69.021 119.547-34.641-20 69.021-119.547c5.522-9.565 17.754-12.843 27.32-7.32z" fill="#5f4e47"/></g><g><path d="m430.997 166.727-69.021 119.547 17.321 10 69.021-119.547c5.523-9.566 2.245-21.798-7.321-27.321-3.159-1.824-6.607-2.669-10.009-2.664 3.442 5.983 3.708 13.578.009 19.985z" fill="#493832"/></g><g><path d="m371.572 248.558 10.19-1.552c1.85-.282 3.647.756 4.328 2.499l3.751 9.601c.466 1.194-.295 2.512-1.562 2.705l-10.19 1.552c-1.849.282-3.647-.756-4.328-2.499l-3.751-9.601c-.467-1.193.294-2.512 1.562-2.705z" fill="#493832"/></g><g><path d="m387.949 220.192 10.19-1.552c1.849-.282 3.647.756 4.328 2.499l3.751 9.601c.466 1.194-.295 2.512-1.562 2.705l-10.19 1.552c-1.849.282-3.647-.756-4.328-2.499l-3.751-9.601c-.466-1.194.295-2.512 1.562-2.705z" fill="#493832"/></g><g><path d="m404.327 191.825 10.19-1.552c1.849-.282 3.647.756 4.328 2.499l3.751 9.601c.466 1.194-.295 2.512-1.562 2.705l-10.19 1.552c-1.849.282-3.647-.756-4.328-2.499l-3.751-9.601c-.467-1.194.294-2.512 1.562-2.705z" fill="#493832"/></g><g><path d="m420.704 163.458 10.19-1.552c1.849-.282 3.647.756 4.328 2.499l3.751 9.601c.466 1.194-.295 2.512-1.562 2.705l-10.19 1.552c-1.849.282-3.647-.756-4.328-2.499l-3.751-9.601c-.466-1.193.295-2.512 1.562-2.705z" fill="#493832"/></g><g><path d="m346.336 263.363 43.301 25c4.783 2.761 6.422 8.877 3.66 13.66-2.761 4.783-8.877 6.422-13.66 3.66l-43.301-25c-4.783-2.761-6.422-8.877-3.66-13.66 2.761-4.782 8.877-6.421 13.66-3.66z" fill="#77625a"/></g><g><path d="m373.158 290.396c-2.761 4.783-8.877 6.422-13.66 3.66l20.14 11.628c4.783 2.761 10.899 1.123 13.66-3.66s1.123-10.899-3.66-13.66l-20.14-11.628c4.782 2.761 6.421 8.877 3.66 13.66z" fill="#5f4e47"/></g></g></g><g><path d="m303.386 261.425c-13.66 15.628-29.925 25.484-47.386 25.484s-33.726-9.856-47.386-25.484v118.412l47.386 69.972 47.386-69.972z" fill="#254167"/></g><g><path d="m268.73 301.292c26.15-17.428 34.656-39.865 34.656-39.865v-.002c-13.66 15.628-29.925 25.484-47.386 25.484s-33.726-9.856-47.386-25.484v118.412l47.386 69.972 27.661-40.845c-13.174-21.948-22.93-42.508-29.748-58.791-7.434-17.75-1.196-38.209 14.817-48.881z" fill="#193554"/></g><g><path d="m361.511 130.341c0 75.823-47.239 164.748-105.511 164.748s-105.511-88.925-105.511-164.748 47.239-130.341 105.511-130.341 105.511 54.518 105.511 130.341z" fill="#0956c6"/></g><g><path d="m210.489 130.341c0-62.261 31.854-110.147 75.511-125.29-9.51-3.298-19.577-5.051-30-5.051-58.272 0-105.511 54.518-105.511 130.341s47.239 164.748 105.511 164.748c10.423 0 20.49-2.858 30-7.964-43.657-23.442-75.511-94.523-75.511-156.784z" fill="#0a4499"/></g><g><path d="m256 114.798c-27.128 0-48.608 2.201-64.34 4.732-13.298 2.139-23.237 13.519-23.257 26.987v.237c0 .159 0 .317.001.476.066 22.091 22.538 37.088 43.082 28.967 13.59-5.372 29.142-9.58 44.514-9.58s30.924 4.208 44.514 9.58c20.544 8.121 43.016-6.876 43.082-28.967 0-.159.001-.318.001-.476 0-.079 0-.158 0-.237-.02-13.468-9.959-24.849-23.257-26.987-15.732-2.531-37.212-4.732-64.34-4.732z" fill="#ffe4c2"/></g><g><path d="m215.448 174.693c-3.22-14.786-4.959-29.809-4.959-44.352 0-4.528.188-8.97.517-13.339-7.195.741-13.653 1.612-19.347 2.527-13.297 2.139-23.237 13.519-23.257 26.987v.237c0 .159 0 .317.001.476.066 22.091 22.538 37.088 43.082 28.967 1.303-.513 2.628-1.013 3.963-1.503z" fill="#f9d0a5"/></g><g><path d="m310.999 162.085c.043-3.495-1.371-7.004-4.242-9.539-4.675-4.128-11.84-4.128-16.515 0-2.871 2.535-4.284 6.044-4.242 9.539.055 4.538 5.629 6.716 8.838 3.507 2.022-2.022 5.3-2.022 7.322 0 3.21 3.21 8.784 1.032 8.839-3.507z" fill="#254167"/></g><g><path d="m201.001 162.085c-.043-3.495 1.371-7.004 4.242-9.539 4.675-4.128 11.84-4.128 16.515 0 2.871 2.535 4.284 6.044 4.242 9.539-.055 4.538-5.629 6.716-8.838 3.507-2.022-2.022-5.3-2.022-7.322 0-3.21 3.21-8.784 1.032-8.839-3.507z" fill="#254167"/></g><g><path d="m55.092 407.139c9.221-25.363 19.04-47.328 27.391-54.702 13.969-12.334 55.42-23.269 87.139-30.177l86.378 127.549 18.878 61.462c-6.231.476-12.525.729-18.878.729-83.166 0-156.64-41.447-200.929-104.803.008-.019.014-.038.021-.058z" fill="#0a4499"/></g><g><path d="m342.379 322.26c31.718 6.908 73.169 17.844 87.138 30.177 8.351 7.373 18.17 29.339 27.391 54.702.007.02.014.039.021.058-31.554 45.139-77.932 79.138-132.067 94.967l-68.862-52.355z" fill="#0a4499"/></g><g><path d="m350.924 492.894c-28.572-26.358-50.647-56.247-67.263-83.93l-27.661 40.845 68.862 52.356c8.909-2.606 17.604-5.713 26.062-9.271z" fill="#254167"/></g><g><path d="m244.872 433.377c43.378-63.426 58.514-118.709 58.514-118.709 3.092.52 19.136 3.268 38.992 7.592-4.024 21.812-19.677 87.275-70.381 151.17z" fill="#0956c6"/></g><g><path d="m272.089 388.491c-7.475 13.987-16.48 29.186-27.217 44.885l27.125 40.053c10.635-13.402 19.723-26.872 27.491-39.995-10.779-15.453-19.848-30.734-27.399-44.943z" fill="#0a4499"/></g><g><path d="m324.877 502.176c-16.045 4.693-32.77 7.791-49.996 9.104-78.855-73.762-100.428-162.839-105.259-189.02 19.856-4.324 35.9-7.072 38.992-7.592 0 0 27.84 101.719 116.263 187.508z" fill="#0956c6"/></g><g><path d="m91.07 426.843v21.327c7.157 6.519 14.704 12.617 22.599 18.262l-12.035-41.103c-1.75-5.98-10.564-4.716-10.564 1.514z" fill="#254167"/></g><g><path d="m420.93 426.843v21.327c-7.157 6.519-14.704 12.617-22.599 18.262l12.035-41.103c1.75-5.98 10.564-4.716 10.564 1.514z" fill="#254167"/></g><g><path d="m223.5 138.968h-20c-4.142 0-7.5-3.358-7.5-7.5 0-4.142 3.358-7.5 7.5-7.5h20c4.142 0 7.5 3.358 7.5 7.5 0 4.142-3.358 7.5-7.5 7.5z" fill="#254167"/></g><g><path d="m308.5 138.968h-20c-4.142 0-7.5-3.358-7.5-7.5 0-4.142 3.358-7.5 7.5-7.5h20c4.142 0 7.5 3.358 7.5 7.5 0 4.142-3.358 7.5-7.5 7.5z" fill="#254167"/></g></g></svg>