<?xml version="1.0" standalone="no"?><!DOCTYPE svg PUBLIC "-//W3C//DTD SVG 1.1//EN" "http://www.w3.org/Graphics/SVG/1.1/DTD/svg11.dtd"><svg t="1626659785746" class="icon" viewBox="0 0 1024 1024" version="1.1" xmlns="http://www.w3.org/2000/svg" p-id="2149" xmlns:xlink="http://www.w3.org/1999/xlink" width="50" height="50"><defs><style type="text/css"></style></defs><path d="M914.285714 0 658.285714 0l0 109.714286 178.428343 0-160.393143 160.393143C605.429029 215.606857 516.928 182.857143 420.571429 182.857143 188.286171 182.857143 0 371.143314 0 603.428571s188.286171 420.571429 420.571429 420.571429 420.571429-188.286171 420.571429-420.571429c0-96.356571-32.749714-184.8576-87.250286-255.749486L914.285714 187.285943 914.285714 365.714286l109.714286 0L1024 109.714286 1024 0 914.285714 0zM420.571429 914.285714c-171.392 0-310.857143-139.465143-310.857143-310.857143s139.465143-310.857143 310.857143-310.857143 310.857143 139.465143 310.857143 310.857143S591.963429 914.285714 420.571429 914.285714z" p-id="2150" fill="#1296db"></path></svg>