<svg id="Capa_1" enable-background="new 0 0 512 512" height="512" viewBox="0 0 512 512" width="512" xmlns="http://www.w3.org/2000/svg"><g><g><path d="m456.929 407.197c27.768-39.723 44.071-88.053 44.071-140.197 0-135.31-109.69-245-245-245s-245 109.69-245 245c0 52.144 16.303 100.474 44.071 140.197z" fill="#f44545"/></g><g><circle cx="256" cy="242" fill="#fb5858" r="200"/></g><g><path d="m167.992 45.981c10.041 12.639 12.4 28.907 7.737 43.183-14.961 1.313-30.274-4.663-40.315-17.302-8.924-11.233-11.78-25.331-9.032-38.351.624-2.958 3.272-5.061 6.294-5.001 13.305.268 26.392 6.238 35.316 17.471z" fill="#bed3e3"/></g><g><path d="m200.794 53.158c-1.837 16.038-11.672 29.208-25.064 36.006-11.508-9.65-18.11-24.704-16.272-40.742 1.633-14.253 9.582-26.242 20.732-33.505 2.533-1.65 5.893-1.265 7.987.915 9.217 9.597 14.249 23.073 12.617 37.326z" fill="#e1ebf0"/></g><g><ellipse cx="256" cy="22" fill="#254167" rx="43.951" ry="22"/></g><g><path d="m358.597 146.754c0-34.248-10.292-65.873-28.98-89.047-19.156-23.755-45.3-36.837-73.617-36.837s-54.461 13.083-73.617 36.837c-18.688 23.175-28.98 54.799-28.98 89.047z" fill="#0956c6"/></g><g><path d="m235.384 143.063c-20.596-46.32-18.214-96.659 20.616-122.193-28.317 0-54.461 13.083-73.617 36.837-18.688 23.175-28.98 54.799-28.98 89.047h83.555c-.527-1.274-1.052-2.516-1.574-3.691z" fill="#0a4499"/></g><g><path d="m303.386 220.734h-94.772v159.104l47.386 69.971 47.386-69.972z" fill="#f9d0a5"/></g><g><path d="m268.73 301.292c26.15-17.428 34.656-39.865 34.656-39.865v-40.693h-94.772v159.103l47.386 69.972 27.661-40.845c-13.174-21.948-22.93-42.508-29.748-58.791-7.434-17.75-1.196-38.209 14.817-48.881z" fill="#f2bb88"/></g><g><path d="m331.058 159.567s10.385-25.285 28.897-19.415-.448 60.664-36.573 64.116z" fill="#f9d0a5"/></g><g><path d="m180.942 159.567s-10.385-25.285-28.897-19.415.448 60.664 36.573 64.116z" fill="#f2bb88"/></g><g><path d="m173.38 108.558c-3.219 11.746-4.977 24.564-4.977 38.196 0 64.505 39.219 140.155 87.597 140.155s87.597-75.651 87.597-140.155c0-13.632-1.758-26.45-4.977-38.197-55.077 9.272-110.165 9.273-165.24.001z" fill="#ffe4c2"/></g><g><path d="m208.403 146.754c0-11.73 1.309-22.853 3.723-33.214-12.916-1.154-25.831-2.807-38.746-4.982-3.219 11.746-4.977 24.564-4.977 38.196 0 64.505 39.219 140.155 87.597 140.155 6.881 0 13.576-1.535 20-4.346-38.741-16.952-67.597-80.479-67.597-135.809z" fill="#f9d0a5"/></g><g><g><path d="m242.013 192.447 8.436-13.441c2.569-4.093 8.533-4.093 11.102 0l8.436 13.441c2.739 4.365-.398 10.038-5.551 10.038h-16.871c-5.154-.001-8.291-5.674-5.552-10.038z" fill="#f9d0a5"/></g></g><g><g><path d="m235.384 240.87h41.233c4.111-3.622 7.258-8.309 9.01-13.631 1.584-4.811-2.069-9.754-7.134-9.754h-44.985c-5.065 0-8.718 4.943-7.134 9.754 1.752 5.322 4.899 10.009 9.01 13.631z" fill="#254167"/></g><g><path d="m276.616 240.87c-5.493 4.849-12.714 7.798-20.616 7.798s-15.124-2.948-20.616-7.798c5.5-4.849 12.714-7.798 20.616-7.798s15.116 2.949 20.616 7.798z" fill="#f44545"/></g></g><g><path d="m310.999 162.085c.043-3.495-1.371-7.004-4.242-9.539-4.675-4.128-11.84-4.128-16.515 0-2.871 2.535-4.284 6.044-4.242 9.539.055 4.538 5.629 6.716 8.838 3.507 2.022-2.022 5.3-2.022 7.322 0 3.21 3.21 8.784 1.032 8.839-3.507z" fill="#254167"/></g><g><path d="m201.001 162.085c-.043-3.495 1.371-7.004 4.242-9.539 4.675-4.128 11.84-4.128 16.515 0 2.871 2.535 4.284 6.044 4.242 9.539-.055 4.538-5.629 6.716-8.838 3.507-2.022-2.022-5.3-2.022-7.322 0-3.21 3.21-8.784 1.032-8.839-3.507z" fill="#254167"/></g><g><path d="m55.092 407.139c9.221-25.363 19.04-47.328 27.391-54.702 13.969-12.334 55.42-23.269 87.139-30.177l86.378 127.549 18.878 61.462c-6.231.476-12.525.729-18.878.729-83.166 0-156.64-41.447-200.929-104.803.008-.019.014-.038.021-.058z" fill="#a7d0fc"/></g><g><path d="m342.379 322.26c31.718 6.908 73.169 17.844 87.138 30.177 8.351 7.373 18.17 29.339 27.391 54.702.007.02.014.039.021.058-31.554 45.139-77.932 79.138-132.067 94.967l-68.862-52.355z" fill="#76b6fa"/></g><g><path d="m350.924 492.894c-28.572-26.358-50.647-56.247-67.263-83.93l-27.661 40.845 68.862 52.356c8.909-2.606 17.604-5.713 26.062-9.271z" fill="#55a4f9"/></g><g><path d="m244.872 433.377c43.378-63.426 58.514-118.709 58.514-118.709 3.092.52 19.136 3.268 38.992 7.592-4.024 21.812-19.677 87.275-70.381 151.17z" fill="#fff5f5"/></g><g><path d="m272.089 388.491c-7.475 13.987-16.48 29.186-27.217 44.885l27.125 40.053c10.635-13.402 19.723-26.872 27.491-39.995-10.779-15.453-19.848-30.734-27.399-44.943z" fill="#e1ebf0"/></g><g><path d="m324.877 502.176c-16.045 4.693-32.77 7.791-49.996 9.104-78.855-73.762-100.428-162.839-105.259-189.02 19.856-4.324 35.9-7.072 38.992-7.592 0 0 27.84 101.719 116.263 187.508z" fill="#fff5f5"/></g><g><g><path d="m355.251 126.218c-66.122 12.363-132.382 12.362-198.502 0-11.016-2.06-18.076-12.911-15.472-23.812.064-.266.127-.532.191-.798 2.436-10.195 12.457-16.602 22.76-14.675 61.175 11.439 122.366 11.439 183.543 0 10.303-1.927 20.324 4.48 22.76 14.675.064.266.127.533.191.799 2.605 10.899-4.455 21.751-15.471 23.811z" fill="#fff5f5"/></g></g><g><path d="m202.649 114.5c0-11.005 8.822-19.935 19.779-20.14-19.401-1.327-38.8-3.8-58.199-7.427-10.304-1.927-20.324 4.48-22.76 14.675-.064.266-.127.532-.191.798-2.604 10.9 4.456 21.752 15.472 23.812 20.532 3.839 41.078 6.483 61.63 7.938-9.001-2.021-15.731-10.046-15.731-19.656z" fill="#e1ebf0"/></g><g><path d="m91.07 426.843v21.327c7.157 6.519 14.704 12.617 22.599 18.262l-12.035-41.103c-1.75-5.98-10.564-4.716-10.564 1.514z" fill="#76b6fa"/></g><g><path d="m420.93 426.843v21.327c-7.157 6.519-14.704 12.617-22.599 18.262l12.035-41.103c1.75-5.98 10.564-4.716 10.564 1.514z" fill="#55a4f9"/></g><g><path d="m223.5 138.968h-20c-4.142 0-7.5-3.358-7.5-7.5 0-4.142 3.358-7.5 7.5-7.5h20c4.142 0 7.5 3.358 7.5 7.5 0 4.142-3.358 7.5-7.5 7.5z" fill="#254167"/></g><g><path d="m308.5 138.968h-20c-4.142 0-7.5-3.358-7.5-7.5 0-4.142 3.358-7.5 7.5-7.5h20c4.142 0 7.5 3.358 7.5 7.5 0 4.142-3.358 7.5-7.5 7.5z" fill="#254167"/></g></g></svg>