<?xml version="1.0" standalone="no"?><!DOCTYPE svg PUBLIC "-//W3C//DTD SVG 1.1//EN" "http://www.w3.org/Graphics/SVG/1.1/DTD/svg11.dtd"><svg t="1622624078497" class="icon" viewBox="0 0 1922 1024" version="1.1" xmlns="http://www.w3.org/2000/svg" p-id="2542" xmlns:xlink="http://www.w3.org/1999/xlink" width="375.390625" height="200"><defs><style type="text/css"></style></defs><path d="M610.526618 340.496998 481.177305 340.496998l0-33.565467 140.809773 0 36.84055-94.963814 41.753669 0-36.020838 94.963814 37.660272 0 227.590804 0 0 33.565467-94.148122 0c-5.456486 39.292928-16.645837 75.31223-33.566925 108.058112-16.916992 32.745779-36.29312 60.035379-58.127258 81.864499l162.101555 80.230298 0 36.019355-188.296294-92.509901c-4.373811 3.82208-9.558118 7.371878-15.553843 10.645504-22.926131 15.28105-51.579904 30.15168-85.961318 44.61312-34.386534 14.466458-72.318054 26.882253-113.800499 37.251379l0-32.745798c43.664282-10.916659 79.413965-23.196262 107.248026-36.839014 27.834061-13.646848 52.123238-27.561779 72.861389-41.751962l-125.255885-63.852237L610.526618 340.496998zM603.15945 456.741478l99.061248 52.392243 8.186778 3.278643c21.830042-20.742451 40.93399-45.845094 57.307546-75.31735 16.373555-29.472256 27.014349-61.670605 31.927501-96.598016L702.220721 340.496998l-49.940462 0L603.15945 456.741478zM36.631347 645.849498l-35.201164 0 81.867981-159.635763 36.84055 0.819712L36.631347 645.849498zM98.032333 309.385421l-69.587763-74.497741 24.560333-22.919987 68.768051 74.497741L98.032333 309.385421zM170.07913 484.574413l0 59.764152 88.41532 0 0-79.410608-119.528204 0 0-28.652574 119.528204 0 0-57.305147-51.57475 0-16.373555 28.652544-37.660272 0 50.755072-89.231258 38.479975 0-18.012979 30.291866 162.101575 0 0 30.286794-96.60723 0 0 57.305147 110.521708 0 0 28.652574-110.521708 0 0 79.410608 80.233643 0 0-59.764152 30.288065 0 0 89.236394-261.15768 0 0-89.236394L170.079163 484.574358 170.07913 484.574413zM450.064384 564.804608c-0.543437 30.563123-7.639347 52.120064-21.286707 64.671949-12.551373 11.459994-34.381414 17.19255-65.494323 17.19255l-63.85494 0 0-32.745798 63.040354 0c10.368614 0 19.09975-1.091891 26.194637-3.273523 7.09591-2.186854 12.280218-4.64169 15.553843-7.371878 8.186778-8.18647 12.556493-22.100378 13.09993-41.746842 1.091891-23.468544 0.819712-57.445376-0.819712-101.923328-1.634304-44.478054-2.181734-100.556186-1.634304-168.229478l-221.043416 0-34.386534 59.759002-37.660262-2.453914 81.867981-136.715776 38.479975 0-28.653773 49.11872L450.064421 261.086291c-1.090867 77.499085-1.090867 141.352346 0 191.561933C451.156378 502.858854 451.156378 540.245299 450.064384 564.804608L450.064384 564.804608zM90.665267 437.914726l-77.774541-80.230298 23.740723-22.919987 77.774541 80.225178L90.665267 437.914726zM1054.252851 609.010483l-102.334874 37.658726L951.917978 251.260557l84.321923 0L1036.239901 211.967646l33.566875 0 0 39.292911 86.781031 0 0 205.480908-102.334915 0-67.953454 0 0 141.628648 67.953459-24.559309 27.014349-10.645504-27.014349-43.386163-13.09993-18.012262 13.099892 0 23.740677 0 93.328384 144.902246-37.660272 0-36.020838-54.851277L1054.252851 609.010483zM986.299392 427.269222l67.953454 0 68.76804 0L1123.020885 280.732799 1054.252829 280.732799l-67.953454 0L986.299375 427.269223 986.299392 427.269222zM1375.172096 582.81175l-149.81632 1.639322 0 62.21804-33.566875 0L1191.788901 251.260557l183.383144 0 0 31.931247L1270.383104 414.989517 1375.172096 551.705293 1375.172096 582.811766 1375.172096 582.81175zM1335.057818 551.705293l-102.334874-136.715776 106.428314-131.797709L1225.355783 283.191808 1225.355783 551.705304 1335.057789 551.705304 1335.057818 551.705293zM1107.466957 296.286003l-67.133747 111.336755-37.660272 0 66.314035-111.336755L1107.466985 296.286003 1107.466957 296.286003zM1691.183309 216.880538c31.107789 3.273523 60.037837 11.596083 86.78103 24.966656 26.743194 13.371494 50.347725 30.155776 70.81472 50.345677 20.466995 20.194918 36.97664 43.391283 49.528013 69.584794 12.556493 26.198733 19.923558 53.76041 22.106419 82.684211l0 18.831904 0 9.82067c0 2.730189-0.272179 5.460378-0.819712 8.18647l-0.819712 13.919027c-4.908032 37.11017-14.186701 71.495373-27.834061 103.150285-13.643264 31.653888-31.243878 60.306534-52.801741 85.957734-21.558886 25.650176-46.938931 47.615488-76.140237 65.898906-29.19721 18.283418-62.08041 32.338534-98.648781 42.159206-21.286707 6.003712-43.936461 10.645504-67.953459 13.919027-24.011878 3.273523-50.211635 3.821056-78.589133 1.634202 12.551373-4.36439 26.878259-10.640384 42.980659-18.826752 16.09728-8.18647 30.288077-16.372941 42.568294-24.559309s21.014426-15.689318 26.199757-22.512742c5.132083-6.823424 3.36169-10.78057-5.320397-11.872358-9.826202-2.181734-19.376128-4.63657-28.653773-7.366758-9.278669-2.726093-19.103846-6.003712-29.473485-9.820672-9.278669-3.278643-18.420326-7.506944-27.426816-12.69207-9.00649-5.184102-17.600614-10.776474-25.787392-16.780186l149.81632-103.969997 153.095066 108.882842-53.214106-180.101939 149.81632-114.610278-188.296294-3.278643-59.761562-174.36928 13.914478 0C1682.176819 216.060826 1686.81769 216.333107 1691.183309 216.880538L1691.183309 216.880538zM1601.12855 390.430208l-188.296294 3.278643c8.186778-26.198733 20.330906-50.214707 36.433306-72.043827 16.09728-21.82912 35.065037-40.519885 56.895181-56.078234 21.834138-15.553229 45.98313-27.696845 72.454144-36.42665 26.47511-8.733901 54.174106-13.099315 83.094938-13.099315L1601.12855 390.430208zM1562.648576 506.679808l-54.84841 175.188992c-30.564352-22.919987-55.260877-52.256154-74.093568-88.004301-18.827571-35.747123-29.60855-73.265664-32.334746-112.563712-1.091891-14.733517-0.547533-29.195981 1.634304-43.386163 2.186854-14.190182 5.460582-28.924723 9.826202-44.205773L1562.648576 506.679808zM130.779443 709.701734c3.822182 2.186854 6.276198 6.416179 7.367066 12.69207 1.091891 6.275891 1.639424 11.867238 1.639424 16.780186l0 70.40449-18.827578 0 0-61.398372 0-14.733563c0-4.36951-1.367245-8.18647-4.09344-11.465114-2.730291-3.273523-7.09591-4.907827-13.09993-4.907827-8.186778 0-16.645837 4.36439-25.380045 13.094195l0 9.006118 0 70.40449-17.193289 0 0-61.398372c0-7.095603-0.819712-14.054093-2.454016-20.873421-1.639424-6.823424-7.09591-10.233037-16.373555-10.233037-4.365619 0-8.73431 1.226957-13.09993 3.68087-4.365619 2.459034-8.186778 5.596467-11.460506 9.413427l0 79.410608-17.193289 0 0-106.423845 17.193289 0 0 11.460006c4.364595-3.273523 8.730214-6.683238 13.09993-10.233037 4.364595-3.545805 9.821082-5.320192 16.373555-5.320192 13.643264 0 22.921011 6.275891 27.834061 18.826752 3.821158-4.907827 8.594125-9.277338 14.326886-13.094195 5.727642-3.82208 12.144128-5.732557 19.240038-5.732557C117.408358 699.06135 124.775526 702.607155 130.779443 709.701734L130.779443 709.701734zM296.974438 709.701734c5.456486 5.460378 8.186778 15.282074 8.186778 29.472256l0 70.40449-18.832694 0 0-61.398372 0-14.733563c0-4.36951-1.363149-8.18647-4.09344-11.465114-2.726195-3.273523-7.094886-4.907827-13.09993-4.907827-3.821158 0-7.642419 0.954778-11.460506 2.861158-3.821158 1.911501-8.186778 5.325312-13.09993 10.233037l0 9.006118 0 70.40449-19.64728 0 0-61.398372 0-9.825786c0-3.273523-0.543437-6.547149-1.634304-9.820672-1.091891-3.273523-2.730291-6.003712-4.91305-8.18647-2.182758-2.182758-5.460582-3.273523-9.826202-3.273523-10.369638 0-18.556416 4.36439-24.560333 13.094195l0 79.410608-19.64728 0 0-106.423845 19.64728 0 0 11.460006c2.730291-4.36439 6.552474-8.050381 11.460506-11.052749 4.91305-3.001344 10.373734-4.50048 16.373555-4.50048 6.005043 0 11.736781 1.499136 17.193267 4.50048 5.460582 3.002368 9.00649 7.779123 10.645914 14.326272 4.364595-4.36439 9.413837-8.593715 15.141478-12.68695 5.732762-4.093235 12.145152-6.139802 19.240038-6.139802C282.235187 699.06135 289.878528 702.607155 296.974438 709.701734L296.974438 709.701734zM334.629581 781.745562l23.745794 0 0 27.832905-23.745794 0L334.629581 781.745561 334.629581 781.745562zM407.496192 703.154586l33.561759 0 0 13.919011L407.496166 717.073597l0 51.572586 0 12.279674c0 4.365414 1.090867 7.638938 3.273728 9.825792 2.182758 2.181734 4.91305 3.544781 8.186778 4.093235 3.273728 0.543334 6.683443 0.543334 10.233446 0 3.545907-0.548454 6.959821-1.367142 10.233446-2.459034l1.634289 0 0 15.553231c-1.634304 1.091891-3.817062 1.911501-6.547354 2.459034-2.730291 0.543334-6.823731 0.819712-12.280218 0.819712-5.460582 0-10.101453-0.548454-13.919642-1.639322-3.817062-1.090867-7.367066-3.273523-10.640794-6.547149-4.91305-6.004736-7.367066-14.738637-7.367066-26.198733l0-59.759035L378.84239 717.073588 378.84239 703.154621l11.460487 0 0-31.92613 17.193289 0L407.496166 703.154621 407.496192 703.154586zM520.471859 708.067533c4.365619 2.182758 7.503155 6.275891 9.413837 12.279706 1.910579 6.003712 2.866381 11.732173 2.866381 17.19255l0 72.03871L513.924478 809.578499l0-11.460006c-1.107251 0.543334-3.018854 2.182758-5.732762 4.912845-3.273728 3.273523-7.639347 5.591347-13.09993 6.954394-5.456486 1.367142-10.640794 2.046566-15.553843 2.046566s-9.277645-0.814592-13.09993-2.453914c-6.008115-2.730189-10.785075-6.823424-14.326886-12.279706-3.545907-5.456282-5.320397-12.007424-5.320397-19.646464 0-7.643034 1.363149-13.646848 4.09344-18.012262 3.273728-6.003712 8.458957-10.096947 15.553843-12.279706 7.100006-2.182758 14.194893-3.821056 21.286707-4.912845 4.365619-1.090867 8.73431-1.634202 13.09993-1.634202 4.364595 0 8.730214-0.54743 13.09993-1.639322l0-3.273557c0-2.730189-0.412365-5.592371-1.232077-8.593715-0.814592-3.002368-2.590106-5.596467-5.320397-7.779123-1.090867-0.54743-2.866381-1.226957-5.320397-2.046566-2.454016-0.819712-6.959821-1.226957-13.507174-1.226957-10.917069 0-21.558886 2.453914-31.927501 7.366758L454.97752 723.620718l0-19.646456c5.460582 0 10.921165-0.819712 16.373555-2.459034 5.456486-1.634202 11.18935-2.453914 17.193267-2.453914 4.364595 0 9.961267 0.407245 16.780902 1.226957C512.148992 701.108019 517.198131 703.702118 520.471859 708.067533L520.471859 708.067533zM513.924506 753.093018c-1.639424 0.543334-3.958272 0.819712-6.959821 0.819712-3.00247 0-6.140109 0.271155-9.413837 0.814592-4.377907 0-9.150771 0.68352-14.326886 2.046566-5.185331 1.367142-9.690112 3.95817-13.512294 7.779123-2.726195 2.730189-4.09344 6.823424-4.09344 12.279706 0 12.551885 6.552474 18.826752 19.652403 18.826752 5.999923 0 11.188326-1.090867 15.553843-3.273523 4.364595-2.182758 8.730214-5.184102 13.09993-9.00608L513.924403 753.092987 513.924506 753.093018zM598.2464 699.06135c14.734131 0 26.199757 5.184102 34.386534 15.553229 8.730214 10.369126 13.09481 24.015974 13.09481 40.93225 0 19.10313-4.364595 33.293312-13.09481 42.571571-7.643443 9.277338-19.103846 13.913907-34.386534 13.913907s-27.014349-4.63657-35.201126-13.913907c-9.278669-9.825792-13.919642-24.015974-13.919642-42.571571 0-9.277338 1.226957-17.052365 3.686093-23.332454 2.454016-6.274867 5.863834-12.13952 10.233446-17.599795C571.775386 704.245453 583.512269 699.06135 598.2464 699.06135L598.2464 699.06135zM619.533107 785.838797c5.456486-6.552269 8.186778-16.64512 8.186778-30.291866 0-12.007424-2.730291-22.100378-8.186778-30.286746-4.91305-6.552269-12.00896-9.825792-21.286707-9.825792-10.369638 0-17.736704 3.273523-22.106419 9.825792-4.908032 6.547149-7.367066 16.644096-7.367066 30.286746 0 13.646848 2.459136 23.739699 7.367066 30.291866 4.91305 7.094579 12.280218 10.640384 22.106419 10.640384C606.984806 796.479078 614.080717 792.933376 619.533107 785.838797L619.533107 785.838797zM714.500915 699.06135c14.186701 0 24.284058 5.867622 30.288077 17.599795 6.004019 11.736269 9.00649 24.152064 9.00649 37.251379 0 16.372941-4.365619 30.559027-13.09993 42.566451-8.730214 10.369126-19.375104 15.553229-31.927501 15.553229-5.456486 0-10.233446-0.679526-14.326886-2.046566-4.09344-1.363046-8.594125-3.137434-13.507174-5.320192l-0.819712 4.912845-15.553884 0L664.560395 658.948817l16.373586 0 0 55.665811c4.91305-3.821056 9.821082-7.366758 14.734131-10.640384C700.581274 700.700774 706.857472 699.06135 714.500915 699.06135L714.500915 699.06135zM727.595725 785.838797c5.460582-6.552269 8.186778-16.920371 8.186778-31.111578 0-7.637914-1.498214-15.824384-4.500685-24.559309-3.00247-8.729805-9.961267-13.094195-20.87424-13.094195-5.460582 0-10.645914 1.090867-15.558963 3.273523-2.749747 1.090867-5.068698 2.317824-6.954701 3.68087-1.918771 1.367142-4.237722 2.866278-6.959821 4.5056l0 62.21804c3.273728 1.090867 7.094886 2.317824 11.460506 3.68087 4.365619 1.367142 8.73431 2.046566 13.09993 2.046566C714.77207 796.479078 722.139238 792.933376 727.595725 785.838797L727.595725 785.838797zM838.117376 708.067533c3.278848 2.726093 6.005043 6.547149 8.186778 11.459994 2.186854 4.912845 3.278848 10.916659 3.278848 18.012262l0 72.03871-17.193289 0 0-11.460006c-5.460582 2.726093-10.369638 5.727437-14.739251 9.00608-4.368691 3.273523-11.19232 4.907827-20.466995 4.907827-8.730214 0-16.09728-3.001344-22.101299-9.00096-4.91305-6.004736-8.186778-12.82816-9.826202-20.466074-1.634304-7.643034-0.271155-15.282074 4.09344-22.925107 3.822182-5.456282 9.00649-9.413427 15.553843-11.867238 6.552474-2.459034 13.372109-4.233421 20.466995-5.325312 4.369715-1.090867 8.735334-1.634202 13.09993-1.634202 4.365619 0 9.00649-0.54743 13.919642-1.639322l0-3.273557c0-2.730189-0.547533-5.732557-1.639424-9.00608-1.115443-3.273523-3.026022-5.727437-5.727642-7.366758-6.552474-4.365414-14.739251-5.592371-24.560333-3.68599-9.826202 1.911501-18.285158 4.5056-25.380045 7.779123l0-19.646456c9.277645-0.54743 17.600614-1.639322 24.96768-3.273523 7.367066-1.639322 15.694131-1.367142 24.9728 0.814592C830.479155 702.607155 834.84375 704.793907 838.117376 708.067533L838.117376 708.067533zM832.389734 753.093018c-2.730291 0.543334-5.320397 0.819712-7.779533 0.819712-2.454016 0-5.320397 0.271155-8.594125 0.814592-6.004019 0-12.963738 1.503232-20.87936 4.5056-7.910502 3.001344-11.86775 8.865894-11.86775 17.599795 0 12.551885 6.819635 18.826752 20.466995 18.826752 6.004019 0 11.053158-1.226957 15.146598-3.68087 4.09344-2.459034 8.594125-5.320192 13.507174-8.598835L832.389734 753.092987 832.389734 753.093018zM914.257613 699.06135c15.281664 0 27.28663 5.184102 36.020838 15.553229 4.365619 5.460378 7.639347 11.324928 9.826202 17.599795 2.181734 6.279987 3.273728 14.055117 3.273728 23.332454 0 18.012262-4.365619 32.202445-13.09993 42.571571-8.738406 9.277338-20.746342 13.913907-36.020838 13.913907-15.830221 0-27.562906-5.456282-35.206246-16.372941-7.638323-10.912563-11.460506-24.283034-11.460506-40.112538 0-9.277338 0.955802-17.052365 2.866381-23.332454 1.910579-6.274867 5.320397-12.13952 10.233446-17.599795C889.425101 704.245453 900.610253 699.06135 914.257613 699.06135L914.257613 699.06135zM936.358912 785.838797c5.460582-6.552269 8.186778-16.64512 8.186778-30.291866 0-12.007424-2.726195-22.100378-8.186778-30.286746-4.908032-6.552269-12.280218-9.825792-22.101299-9.825792-9.278669 0-16.1024 3.273523-20.466995 9.825792-5.460582 7.094579-8.186778 17.18743-8.186778 30.286746 0 13.099315 2.726195 23.196262 8.186778 30.291866 4.91305 7.094579 11.732685 10.640384 20.466995 10.640384C923.53536 796.479078 930.902426 792.933376 936.358912 785.838797L936.358912 785.838797zM985.47968 781.745562l22.106388 0 0 27.832905-22.106388 0L985.47968 781.745561 985.47968 781.745562zM1081.2672 699.06135c4.91305 0 10.233446 0.819712 15.96631 2.453914 5.727642 1.639322 11.048038 3.82208 15.96119 6.552269l0 20.466124c-8.186778-8.18647-18.827571-12.279706-31.927501-12.279706-9.826202 0-17.464525 3.273523-22.921011 9.820672-5.460582 8.18647-8.186778 18.012262-8.186778 29.472256 0 12.551885 2.726195 22.376653 8.186778 29.472256 4.908032 7.638938 12.551373 11.459994 22.921011 11.459994 6.020403 0 11.612979-1.363046 16.780902-4.093235 5.185331-2.726093 10.233446-5.727437 15.146598-9.00608l0 21.285792c-5.456486 0-10.640794 1.226957-15.553843 3.68599-4.91305 2.453914-10.369638 3.68087-16.373555 3.68087-15.826125 0-28.10624-5.456282-36.84055-16.372941-8.73431-10.912563-13.09993-24.283034-13.09993-40.112538 0-3.821056 0.272179-7.774106 0.819712-11.867238s1.363149-7.779123 2.454016-11.052749c3.822182-8.733901 9.826202-16.50903 18.012979-23.332454C1060.800205 702.471066 1070.350131 699.06135 1081.2672 699.06135L1081.2672 699.06135zM1169.682534 699.06135c14.191821 0 26.199757 5.184102 36.025958 15.553229 3.817062 5.460378 6.819635 11.324928 9.00137 17.599795 2.186854 6.279987 3.278848 14.055117 3.278848 23.332454 0 17.46473-4.09344 31.654912-12.280218 42.571571-9.278669 9.277338-21.286707 13.913907-36.025958 13.913907-13.09481 0-24.284058-4.63657-33.561805-13.913907-8.735334-10.369126-13.09993-24.559309-13.09993-42.571571 0-16.916275 4.364595-30.563123 13.09993-40.93225C1144.307507 704.245453 1155.495834 699.06135 1169.682534 699.06135L1169.682534 699.06135zM1191.788954 785.838797c4.91305-5.460378 7.367066-15.553229 7.367066-30.291866 0-12.550861-2.454016-22.648832-7.367066-30.286746-4.365619-6.552269-11.732685-9.825792-22.106419-9.825792-9.821082 0-16.916992 3.273523-21.281587 9.825792-2.218598 3.81696-3.994112 8.18647-5.325517 13.094195-1.363149 4.912845-2.046669 10.645504-2.046669 17.19255 0 7.095603 0.683622 12.963226 2.046669 17.599795 1.367245 4.64169 3.138662 8.86999 5.325517 12.69207 4.908032 7.094579 12.00384 10.640384 21.281587 10.640384C1179.508736 796.479078 1186.875802 792.933376 1191.788954 785.838797L1191.788954 785.838797zM1344.064307 699.06135c14.190797 0 24.012902 7.366758 29.473485 22.105498 1.090867 5.456282 1.634304 11.459994 1.634304 18.007142l0 70.40449L1357.164177 809.57848l0-61.398372 0-14.733563c0-4.36951-1.639424-8.18647-4.91305-11.465114-3.273728-3.273523-7.643443-4.907827-13.09993-4.907827-4.365619 0-9.00649 1.226957-13.919642 3.68087-4.908032 2.459034-8.730214 5.596467-11.460506 9.413427l0 9.006118 0 70.40449-17.193289 0 0-61.398372 0-8.18645c0-2.182758-0.271155-4.365414-0.814592-6.547149 0-10.916659-6.005043-16.372941-18.012979-16.372941-4.365619 0-8.594125 1.226957-12.687462 3.68087-4.09344 2.459034-7.507251 5.596467-10.233446 9.413427l0 79.410608-18.832694 0 0-106.423845 18.832694 0 0 11.460006c3.817062-3.273523 7.910502-6.683238 12.280218-10.233037 4.385075-3.545805 9.569382-5.320192 15.553843-5.320192 12.551373 0 22.101299 6.275891 28.653773 18.826752 3.821158-4.907827 8.457933-9.277338 13.914522-13.094195C1330.692198 700.97193 1336.968397 699.06135 1344.064307 699.06135L1344.064307 699.06135zM1344.064307 699.06135" p-id="2543" fill="#d81e06"></path></svg>